<svg viewBox="0 0 367 418.71" xmlns="http://www.w3.org/2000/svg" xmlns:xlink="http://www.w3.org/1999/xlink"><mask id="a" height="53.78" maskUnits="userSpaceOnUse" width="93.37" x="117.03" y="0"><path d="m117.03.29h93.37v53.79h-93.37z" fill="#fff" fill-rule="evenodd" transform="translate(0 -.29)"/></mask><mask id="b" height="209.35" maskUnits="userSpaceOnUse" width="209.23" x="4.99" y="209.35"><path d="m4.99 209.65h209.23v209.35h-209.23z" fill="#fff" fill-rule="evenodd" transform="translate(0 -.29)"/></mask><path d="m150 118a105 105 0 1 0 105-105 105 105 0 0 0 -105 105" fill="#fddce5" fill-rule="evenodd" transform="translate(0 -.29)"/><path d="m264.56 17a21.57 21.57 0 0 1 10.21-.65 12.46 12.46 0 0 1 8.23 5.44c1.94 3.27 1.76 7.26 1.52 11l-1.76 28.21c-.17 2.61-.32 5.32.74 7.73s3.72 4.4 6.41 3.87a24.4 24.4 0 0 0 3.81-1.6c1.29-.5 3-.52 3.83.57a3.18 3.18 0 0 1 .41 2.29 11.18 11.18 0 0 1 -5.86 8.41c1.89-.87 4.25.94 4.28 2.94s-1.65 3.72-3.6 4.47a16.45 16.45 0 0 1 -6.19.67 3.16 3.16 0 0 1 2.89 3.43 4.77 4.77 0 0 1 -3.11 3.64 11 11 0 0 1 -5.09.51 19.74 19.74 0 0 1 -10.16-3.61c-5-3.79-7.05-10.26-7.12-16.36s1.52-12.12 2.42-18.17c2.07-14 .37-28.29-1.32-42.37l1.23-.36" fill="#ff7081" fill-rule="evenodd" transform="translate(0 -.29)"/><path d="m283 228.75c-4.08 3.82-5.62 9.77-1.74 14.35a11.6 11.6 0 0 0 15.31 1.8c11-8.31-.47-23.65-12.38-20.47-2.2.58-1.65 3.65.53 3.77 3.48.19 7.2.32 10 2.71a7 7 0 0 1 .6 9.82c-6.49 7.79-17.76-3.68-11-10.64a1 1 0 0 0 -1.36-1.34" fill="#7cabff" fill-rule="evenodd" transform="translate(0 -.29)"/><path d="m164.34 188c-1.39-1.58-2.91-2.8-3.61-4.91-1.38-4.22 1.26-6.32 4.36-7.89s5.71-3.46 6.64-7.31c1.47-6-3.28-13.43-9.34-11.65-2 .58-1.38 3.28 0 4.12 1.88 1.17 4.39 1.84 4.71 4.63.42 3.73-3 4.79-5.37 6.14a10.79 10.79 0 0 0 -5.34 6.72c-1.41 5.27 1.51 12.41 7.2 12.11a1.26 1.26 0 0 0 .79-2" fill="#7e2e84" fill-rule="evenodd" transform="translate(0 -.29)"/><path d="m146 252.07c.54 3.46 4.19 10.79 8 11.81 2 .54 3.56-.79 5.15-1.87 2.88-2 5.73-4 8.58-6a2.44 2.44 0 0 0 .88-3.31l-7.57-11.51a2.5 2.5 0 0 0 -3.35-.87c-3.15 2.2-6.56 4.23-9.4 6.81-2 1.78.53 4.68 2.75 3.52 3.22-1.68 6.15-4.07 9.12-6.15l-3.35-.87 7.57 11.51c.29-1.11.59-2.21.88-3.31l-5.14 3.61c-1 .68-4.2 3.68-5.28 3.56s-3-3.5-3.58-4.2a19.34 19.34 0 0 0 -3.91-3.81c-.75-.51-1.49.33-1.38 1" fill="#fbc580" fill-rule="evenodd" transform="translate(0 -.29)"/><path d="m314 96.07c.54 3.46 4.19 10.79 8 11.81 2 .53 3.56-.79 5.15-1.87 2.88-2 5.73-4 8.58-6a2.44 2.44 0 0 0 .88-3.31l-7.57-11.5a2.5 2.5 0 0 0 -3.35-.87c-3.15 2.2-6.56 4.23-9.4 6.81-1.95 1.78.53 4.68 2.75 3.52 3.22-1.68 6.15-4.07 9.12-6.15l-3.35-.87 7.57 11.51c.29-1.11.59-2.21.88-3.31l-5.14 3.61c-1 .68-4.2 3.68-5.28 3.56s-3-3.5-3.58-4.19a19.13 19.13 0 0 0 -3.87-3.82c-.75-.51-1.49.33-1.38 1" fill="#fbc580" fill-rule="evenodd" transform="translate(0 -.29)"/><path d="m328.89 157.12c-6.27 3-12.44 6.25-18.6 9.54a2.21 2.21 0 0 0 -.56 3.66c4.51 4.86 9 9.74 13.8 14.24a1.88 1.88 0 0 0 2.93-.74c3-6.85 7.58-16.18 6.33-23.95-.32-2-3.21-2.87-4-.67-1.21 3.45-1.2 7.31-2 10.9a59.23 59.23 0 0 1 -3.79 12.11l3.27-.35c-4.42-5.22-9.2-10-14-14.87l-.09 3.39c6-3.53 12-7.11 17.91-10.88 1.24-.8.12-3-1.22-2.38" fill="#ff7081" fill-rule="evenodd" transform="translate(0 -.29)"/><path d="m210.2 246.57a122.79 122.79 0 0 0 12.54-17.52c1.11-2-1.62-4.18-3-2.4a124.83 124.83 0 0 0 -11.58 18.35c-.7 1.33 1.06 2.78 2 1.61" fill="#ff7081" fill-rule="evenodd" transform="translate(0 -.29)"/><path d="m365.88 62.4-.34-.3a3.85 3.85 0 1 0 -5.45 5.43l.31.35a3.91 3.91 0 0 0 5.48 0c1.35-1.47 1.63-4 0-5.48" fill="#241352" fill-rule="evenodd" transform="translate(0 -.29)"/><path d="m183.88 212.4-.34-.3a3.85 3.85 0 0 0 -5.45 5.44l.3.34a3.88 3.88 0 0 0 5.49-5.48" fill="#241352" fill-rule="evenodd" transform="translate(0 -.29)"/><path d="m239 85.75-70.52 26.61 6.73-28.67-18.34-4.69s-19.73 56.05-6 57.54c24 2.63 60.28-6.93 60.28-6.93z" fill="#ffafa7" fill-rule="evenodd" transform="translate(0 -.29)"/><path d="m214 146.94.15 54.66c17.79 22.13 79.69-6.48 79.69-6.48l.72-22.36 1.44-53.25c-1.43-21.21-20.88-31.62-20.88-31.62-8.05-4.06-20.31-6.36-31.37-5.81-11.53.58-14.38 6.17-19.14 16.83-3.84 8.61-10.61 16.69-10.61 48" fill="#fff" fill-rule="evenodd" transform="translate(0 -.29)"/><path d="m271.7 31.31-.83 11s9.31 1.25 6.65 9.75-9 4.77-9 4.77-1.6 21.77-23.88 14.87c-17.74-5.54-16.64-28.52-14.41-48.11a13.11 13.11 0 0 1 15.54-11.34l13.4 2.61a15.55 15.55 0 0 1 12.53 16.45" fill="#ffafa7" fill-rule="evenodd" transform="translate(0 -.29)"/><path d="m272 51-6.1 32.4a13.06 13.06 0 0 1 -25.7-4.67l3.32-18.57z" fill="#ffafa7" fill-rule="evenodd" transform="translate(0 -.29)"/><path d="m246 52.08a.84.84 0 0 1 -.36.84c-.47.33-1.22-.37-1.41-1.51a16.13 16.13 0 0 1 -.19-3.75c0-1.46.1-2.89.15-4.4.23-6.26.62-11.26.81-11.26s.22 5.1 0 11.34c-.08 1.5-.14 2.94-.21 4.4a17.59 17.59 0 0 0 0 3.4c.09.9.49 1.32.75 1.28s.39-.4.45-.34" fill="#241352" fill-rule="evenodd" transform="translate(0 -.29)"/><path d="m240 69c.18-.32 4.55 2.7 10.93 2.8s10.89-2.71 11.05-2.38c.1.11-.86 1-2.8 1.88a19.33 19.33 0 0 1 -8.27 1.7 19.12 19.12 0 0 1 -8.19-2c-1.9-1-2.81-1.88-2.71-2" fill="#241352" fill-rule="evenodd" transform="translate(0 -.29)"/><path d="m244 56.74c.14-.12.63.3 1.54.67a5.45 5.45 0 0 0 3.61.22 5.31 5.31 0 0 0 2.8-2.22c.51-.8.66-1.43.85-1.41s.32.7-.06 1.78a5.07 5.07 0 0 1 -3.21 3 5.29 5.29 0 0 1 -4.42-.62c-1-.65-1.23-1.33-1.11-1.41" fill="#241352" fill-rule="evenodd" transform="translate(0 -.29)"/><path d="m272 51.78c0-.16.35-.26.74-.59a1.19 1.19 0 0 0 .4-.71c.06-.32 0-.56-.17-.62a.22.22 0 0 0 -.28 0l-.69-.46c.56-1.49 1.09-2.49 1.26-2.39s-.05 1.28-.52 2.81l-.72-.48a.93.93 0 0 1 1.28-.51 1.31 1.31 0 0 1 .65.91 2.07 2.07 0 0 1 0 1.06 1.64 1.64 0 0 1 -.88 1.09c-.64.25-1 0-1-.11" fill="#241352" fill-rule="evenodd" transform="translate(0 -.29)"/><path d="m257 31.78c-.12-.26.92-.8 2.24-.48s1.94 1.27 1.7 1.44-1-.21-2-.43-1.87-.24-2-.53" fill="#241352" fill-rule="evenodd" transform="translate(0 -.29)"/><path d="m237 28.17c-.15-.25 1-.91 2.59-.79s2.58.93 2.37 1.16-1.22 0-2.48-.12-2.34 0-2.48-.25" fill="#241352" fill-rule="evenodd" transform="translate(0 -.29)"/><path d="m270.28 42.41c-6.09-6.11-7.88-16.3-9.53-24.89a20.79 20.79 0 0 1 -19.89 2.67 32.5 32.5 0 0 1 -7.08 6.38 3.09 3.09 0 0 1 -2.51.71c-1-.32-1.47-1.52-1.72-2.59a19 19 0 0 1 .36-10.4 12.39 12.39 0 0 1 6.77-7.49c3.41-1.36 7.24-.77 10.77.17a58.78 58.78 0 0 1 15.2 6.48c4.66 2.81 9.13 6.53 11.11 11.7s2 15.24-2.8 17.85" fill="#ff7081" fill-rule="evenodd" transform="translate(0 -.29)"/><path d="m235.44 86.22c6.2-2.35-41.44 14.58-41.44 14.58l4.83 31.2 18.17-5.69z" fill="#fff" fill-rule="evenodd" transform="translate(0 -.29)"/><path d="m172.77 85s12.14-17.09 10-17.08-3.29 3.22-7.49 5.43c0 0 6.7-21.37 4.63-20.93s-7 14.17-7.35 14.15 4.24-15.38 2.51-15.57-5.94 14.11-5.94 14.11 2.89-13.59 1.07-13.9-4.52 12.22-4.52 12.22 2.15-10.51.49-10.77c-1-.15-10.17 25.92-10.17 25.92.24 0 16.77 6.42 16.77 6.42" fill="#ffafa7" fill-rule="evenodd" transform="translate(0 -.29)"/><path d="m267.53 145a9.31 9.31 0 0 1 -.55-2.44c-.26-1.58-.6-3.86-1-6.7-.78-5.66-1.77-13.48-2.77-22.16a23.9 23.9 0 0 1 0-6.49 11.56 11.56 0 0 1 2.58-5.66 16.1 16.1 0 0 1 9.33-5.17 24 24 0 0 1 7.27-.19 8.51 8.51 0 0 1 2.59.54 15.24 15.24 0 0 1 -2.64 0 27.67 27.67 0 0 0 -7 .57 15.47 15.47 0 0 0 -8.55 5 10.52 10.52 0 0 0 -2.27 5.13 23.78 23.78 0 0 0 0 6.19c1 8.64 1.84 16.5 2.38 22.19.27 2.84.47 5.15.57 6.74a8.86 8.86 0 0 1 0 2.49" fill="#241352" fill-rule="evenodd" transform="translate(0 -.29)"/><path d="m265 142.1c0-.34 8.35.24 18.57 1.29s18.43 2.18 18.43 2.52-8.35-.25-18.57-1.3-18.43-2.18-18.43-2.51" fill="#241352" fill-rule="evenodd" transform="translate(0 -.29)"/><g mask="url(#a)"><path d="m210.4 2.73v37.01h-24.44l-.78 14.04-14.36-14.85h-53.79l4.73-38.93z" fill="#ffafbd" fill-rule="evenodd"/></g><path d="m203.8 13.83c-23.77-.39-47.69-.53-71.46-.12a.29.29 0 1 0 0 .58c23.77.41 47.69.27 71.46-.12.27 0 .27-.33 0-.34" fill="#e6e2eb" fill-rule="evenodd" transform="translate(0 -.29)"/><path d="m203.8 21.83c-23.77-.39-47.69-.53-71.46-.12a.29.29 0 1 0 0 .58c23.77.41 47.69.27 71.46-.12a.17.17 0 1 0 0-.34" fill="#e6e2eb" fill-rule="evenodd" transform="translate(0 -.29)"/><path d="m200.8 29.83c-14.41-.37-29.05-.49-43.47-.12a.29.29 0 1 0 0 .58c14.42.37 29.06.25 43.47-.12.26 0 .27-.33 0-.34" fill="#e6e2eb" fill-rule="evenodd" transform="translate(0 -.29)"/><path d="m237.73 37.81c-.26.13-.66-.14-1-.49s-.67-.73-.56-1 .75-.25 1.27.24.58 1.14.32 1.25" fill="#241352" fill-rule="evenodd" transform="translate(0 -.29)"/><path d="m256.83 39c-.26.1-.73-.28-1.18-.77s-.76-1-.57-1.15.88 0 1.41.63.6 1.2.34 1.29" fill="#241352" fill-rule="evenodd" transform="translate(0 -.29)"/><path d="m252.82 55.78c.46 1.89 0 3.75-1 4.14s-2.2-.81-2.66-2.7 0-3.75 1-4.14 2.2.81 2.66 2.7" fill="#241352" fill-opacity=".2" fill-rule="evenodd" transform="translate(0 -.29)"/><path d="m264 44.46c0 1.93-2.22 3.52-5 3.54s-5-1.53-5-3.46 2.22-3.54 5-3.54 5 1.53 5 3.46" fill="#241352" fill-opacity=".15" fill-rule="evenodd" transform="translate(0 -.29)"/><path d="m242 45.46c0 1.93-2.22 3.52-5 3.54s-5-1.53-5-3.46 2.22-3.54 5-3.54 5 1.53 5 3.46" fill="#241352" fill-opacity=".15" fill-rule="evenodd" transform="translate(0 -.29)"/><path d="m272.25 28a3.84 3.84 0 0 0 -.07-1.73c-.29-1-1.19-2.42-1.9-4.05-1.51-3.24-2.51-6-2.24-6.19s1.73 2.33 3.26 5.61a19.24 19.24 0 0 1 1.7 4.41 2.49 2.49 0 0 1 -.25 1.61c-.22.32-.42.38-.47.32" fill="#6f35a5" fill-rule="evenodd" transform="translate(0 -.29)"/><path d="m219.18 133.49-4.18 54.6 58 7.62-3.93-63z" fill="#7cabff" fill-rule="evenodd"/><path d="m222 96.11v42.6l7-2.45v-48.55l-7 1.98" fill="#7cabff" fill-rule="evenodd"/><path d="m275.71 90s-26 3.31-18.29 45.31l6.51.69s-7.34-39.46 17.07-42.27z" fill="#7cabff" fill-rule="evenodd" transform="translate(0 -.29)"/><path d="m268.65 138s8.82 52.13-3.62 50.85c-40.9-4.22-65.25-4.79-65.25-4.79l-6.78 14.12c-.16 2.41 77.46 24.7 89.93 17.33 8.8-5.2 22.83-19.22 16.46-61.11l-1.5-14z" fill="#ffafa7" fill-rule="evenodd" transform="translate(0 -.29)"/><path d="m290.45 103.9s9.44 9.22 11.55 44.1l-36.52-4.11s-6.08-59.41 25-40" fill="#fff" fill-rule="evenodd" transform="translate(0 -.29)"/><path d="m204.35 184.63s-20.12-6.28-19.43-4.21 4.11 2.14 7.54 5.47c0 0-22.51.24-21.42 2.09s15.73 2.3 15.81 2.62-16 .7-15.65 2.41 15.33 1.29 15.33 1.29-13.88 1.47-13.6 3.3 13.08.52 13.08.52-10.7 1.22-10.43 2.88c.18 1 31.36 1.25 31.42 2 0 .39-2.65-18.36-2.65-18.36" fill="#ffafa7" fill-rule="evenodd" transform="translate(0 -.29)"/><path d="m229.29 132c.16 0 .54.93.69 2.66a6 6 0 0 1 -.54 3.1 3.71 3.71 0 0 1 -3.19 2.24 4.07 4.07 0 0 1 -3.3-2 6.44 6.44 0 0 1 -.92-3c-.11-1.72.11-2.72.27-2.73s.31 1 .63 2.58a6.73 6.73 0 0 0 1 2.4 3.09 3.09 0 0 0 2.32 1.38 2.62 2.62 0 0 0 2.16-1.49 5.88 5.88 0 0 0 .67-2.49c.09-1.57 0-2.63.22-2.65" fill="#241352" fill-rule="evenodd" transform="translate(0 -.29)"/><path d="m226.53 134.38c.06.1 0 .3.08.52s.23.32.44.19.19-.29 0-.5-.37-.17-.44-.27.16-.42.68-.29a1 1 0 0 1 .66.65 1 1 0 0 1 -.44 1.13.94.94 0 0 1 -1.51-.9c.08-.54.48-.63.52-.53" fill="#241352" fill-rule="evenodd" transform="translate(0 -.29)"/><path d="m263.47 133c.14-.07.68.46.49 1.47a3.42 3.42 0 0 1 -3.31 2.52 3.56 3.56 0 0 1 -3.56-2.27c-.29-1 .19-1.57.33-1.51s.15.57.58 1.23a3.1 3.1 0 0 0 2.59 1.41 3 3 0 0 0 2.44-1.59c.35-.68.24-1.21.44-1.26" fill="#241352" fill-rule="evenodd" transform="translate(0 -.29)"/><path d="m261.14 129.73a.7.7 0 0 1 .71-.73c.27 0 .63.16.91.75a3.24 3.24 0 0 1 .05 2.32c-.24.7-.83 1.19-1.31.78a2.2 2.2 0 0 1 -.49-1.75 1.36 1.36 0 0 1 .42-1 .17.17 0 0 1 .27.12 2.29 2.29 0 0 0 -.07.91c.12.54.22.56.44.11a1 1 0 0 0 -.31-1.19c-.3-.22-.56-.14-.62-.33" fill="#241352" fill-rule="evenodd" transform="translate(0 -.29)"/><path d="m258.78 157c-.29-.08-.33-1.2-.3-2.52s.14-2.42.43-2.48.66 1.07.61 2.53-.46 2.54-.74 2.47" fill="#241352" fill-rule="evenodd" transform="translate(0 -.29)"/><path d="m254 165.94c-.16-.25.2-1.18.69-2.22s1-1.86 1.18-1.7.05 1.3-.5 2.44-1.21 1.73-1.37 1.48" fill="#241352" fill-rule="evenodd" transform="translate(0 -.29)"/><path d="m246 170.55c-.05-.29 1-.64 2.34-1s2.45-.52 2.64-.27-.77.91-2.22 1.26-2.71.26-2.76 0" fill="#241352" fill-rule="evenodd" transform="translate(0 -.29)"/><path d="m235 169.38c.16-.26 1.3-.1 2.62.19s2.4.6 2.36.9-1.28.41-2.73.1-2.42-.93-2.25-1.19" fill="#241352" fill-rule="evenodd" transform="translate(0 -.29)"/><path d="m228.07 163c.2-.17.67.64 1.17 1.67s.88 2 .73 2.24-.81-.29-1.36-1.43a3.83 3.83 0 0 1 -.54-2.48" fill="#241352" fill-rule="evenodd" transform="translate(0 -.29)"/><path d="m227 153c.29 0 .43 1.14.52 2.46s.06 2.45-.22 2.53-.74-1-.82-2.43.24-2.6.52-2.56" fill="#241352" fill-rule="evenodd" transform="translate(0 -.29)"/><path d="m234 152.07c0 .29-1.14.49-2.52.45s-2.49-.31-2.48-.59 1.14-.49 2.52-.45 2.49.3 2.48.59" fill="#241352" fill-rule="evenodd" transform="translate(0 -.29)"/><path d="m244 152.07c0 .29-1.14.49-2.52.45s-2.49-.3-2.48-.59 1.14-.49 2.52-.45 2.49.3 2.48.59" fill="#241352" fill-rule="evenodd" transform="translate(0 -.29)"/><path d="m255 152.07c0 .29-1.14.49-2.52.45s-2.49-.31-2.48-.59 1.14-.49 2.52-.45 2.49.3 2.48.59" fill="#241352" fill-rule="evenodd" transform="translate(0 -.29)"/><path d="m259.29 263.06a139 139 0 0 0 2.71-21.13c.08-2.18-3.05-2.72-3.41-.53a139.16 139.16 0 0 0 -1.59 21.3 1.16 1.16 0 0 0 2.29.36" fill="#ff957e" fill-rule="evenodd" transform="translate(0 -.29)"/><path d="m293.88 285.4-.34-.3a3.85 3.85 0 0 0 -5.45 5.43l.31.35a3.87 3.87 0 0 0 5.48-5.48" fill="#241352" fill-rule="evenodd" transform="translate(0 -.29)"/><g mask="url(#b)"><path d="m214.22 314.32a104.62 104.62 0 1 1 -104.61-104.67 104.65 104.65 0 0 1 104.61 104.67" fill="#fddce5" fill-rule="evenodd" transform="translate(0 -.29)"/></g><g fill-rule="evenodd"><path d="m125 278.75 70.52 26.61-6.73-28.67 18.34-4.69s19.73 56 6 57.54c-24 2.63-60.28-6.93-60.28-6.93z" fill="#ffafa7" transform="translate(0 -.29)"/><path d="m149 341.94-.15 54.66c-17.79 22.13-79.69-6.48-79.69-6.48l-.72-22.36-1.44-53.25c1.43-21.21 20.88-31.62 20.88-31.62 8.05-4.06 20.31-6.36 31.37-5.81 11.53.58 14.38 6.17 19.14 16.83 3.84 8.61 10.61 16.69 10.61 48" fill="#40a1dc" transform="translate(0 -.29)"/><path d="m94.35 331s-8.82 52.13 3.65 50.85c40.9-4.22 65.25-4.79 65.25-4.79l6.75 14.13c.16 2.4-77.46 24.69-89.93 17.32-8.8-5.2-22.83-19.22-16.46-61.11l1.5-14z" fill="#ffafa7" transform="translate(0 -.29)"/><path d="m71.55 297.9s-9.44 9.22-11.55 44.1l36.52-4.11s6.08-59.41-25-40" fill="#40a1dc" transform="translate(0 -.29)"/><path d="m89.3 225.31.83 10.95s-9.31 1.25-6.65 9.75 9 4.77 9 4.77 1.6 21.77 23.88 14.87c17.73-5.5 16.65-28.47 14.4-48.06a13.11 13.11 0 0 0 -15.55-11.34l-13.39 2.61a15.55 15.55 0 0 0 -12.52 16.45" fill="#ffafa7" transform="translate(0 -.29)"/><path d="m91 244 6.11 32.4a13.06 13.06 0 0 0 25.69-4.67l-3.32-18.57z" fill="#ffafa7" transform="translate(0 -.29)"/><path d="m116 245.08c.06-.06.18.29.45.34s.66-.38.75-1.28a17.59 17.59 0 0 0 0-3.4c-.07-1.46-.13-2.89-.21-4.4-.25-6.24-.26-11.32 0-11.34s.62 5 .87 11.26c0 1.51.1 3 .15 4.4a16.16 16.16 0 0 1 -.19 3.75c-.19 1.14-.94 1.84-1.41 1.51a.84.84 0 0 1 -.36-.84" fill="#241352" transform="translate(0 -.29)"/><path d="m124 264c.11.11-.81 1-2.71 2a19.4 19.4 0 0 1 -16.47.31c-1.94-.9-2.9-1.77-2.8-1.88.17-.33 4.67 2.52 11 2.38s10.79-3.11 10.98-2.81" fill="#241352" transform="translate(0 -.29)"/><path d="m118 248.74c.12.08-.15.76-1.11 1.41a5.3 5.3 0 0 1 -4.42.62 5.07 5.07 0 0 1 -3.21-3c-.38-1.08-.21-1.78-.06-1.78s.34.61.85 1.42a5.34 5.34 0 0 0 2.8 2.21 5.45 5.45 0 0 0 3.61-.22c.9-.37 1.4-.79 1.54-.67" fill="#241352" transform="translate(0 -.29)"/><path d="m89 246.78c0 .13-.36.36-1 .11a1.64 1.64 0 0 1 -.88-1.09 2.07 2.07 0 0 1 0-1.06 1.34 1.34 0 0 1 .65-.91.92.92 0 0 1 1.28.51l-.72.48c-.47-1.53-.7-2.71-.52-2.81s.7.91 1.26 2.39l-.72.48a.23.23 0 0 0 -.28 0c-.15.07-.23.31-.17.63a1.19 1.19 0 0 0 .4.71c.39.33.75.43.74.59" fill="#241352" transform="translate(0 -.29)"/><path d="m107 224.78c-.09.29-1 .28-2 .53s-1.75.64-2 .43.37-1.12 1.7-1.44 2.36.22 2.24.48" fill="#241352" transform="translate(0 -.29)"/><path d="m126 221.17c-.14.28-1.22.14-2.48.25s-2.29.37-2.48.12.77-1 2.38-1.16 2.73.54 2.58.79" fill="#241352" transform="translate(0 -.29)"/><path d="m92.72 235.41c6.09-6.11 7.88-16.3 9.53-24.89a20.79 20.79 0 0 0 19.89 2.67 32.23 32.23 0 0 0 7.08 6.37 3.09 3.09 0 0 0 2.51.72c1-.32 1.47-1.52 1.71-2.59a19 19 0 0 0 -.35-10.41 12.36 12.36 0 0 0 -6.78-7.48c-3.4-1.36-7.23-.77-10.76.17a58.78 58.78 0 0 0 -15.2 6.48c-4.66 2.81-9.13 6.53-11.11 11.7s-2 15.23 2.8 17.85" fill="#241352" transform="translate(0 -.29)"/><path d="m127.56 279.22c-6.2-2.35 41.44 14.58 41.44 14.58l-4.83 31.2-18.12-5.69z" fill="#40a1dc" transform="translate(0 -.29)"/><path d="m158.64 376.63s20.13-6.28 19.44-4.21-4.11 2.14-7.54 5.47c0 0 22.5.24 21.42 2.09s-15.73 2.3-15.82 2.62 16 .71 15.66 2.41-15.33 1.29-15.33 1.29 13.88 1.47 13.59 3.31-13.07.51-13.07.51 10.7 1.22 10.42 2.88c-.17 1-31.35 1.25-31.41 2 0 .4 2.64-18.36 2.64-18.36" fill="#ffafa7" transform="translate(0 -.29)"/><path d="m189.23 279s-12.14-17.09-10-17.08 3.29 3.22 7.49 5.43c0 0-6.7-21.37-4.63-20.93s7 14.17 7.36 14.16-4.28-15.39-2.55-15.58 5.94 14.11 5.94 14.11-2.89-13.59-1.07-13.9 4.52 12.22 4.52 12.22-2.15-10.51-.49-10.77c1-.15 10.17 25.92 10.17 25.92-.24 0-16.77 6.42-16.77 6.42" fill="#ffafa7" transform="translate(0 -.29)"/><path d="m78.4 325c.13 0 .58.72.6 2.18a2.86 2.86 0 0 1 -1.28 2.37 2.49 2.49 0 0 1 -1.86.41 3.25 3.25 0 0 1 -1.62-1c-.77-.83-1.27-1.33-2.06-1.42a2.4 2.4 0 0 0 -1.88.5c-.92.79-.89 1.69-1.08 1.68s-.6-1 .43-2.24a3.2 3.2 0 0 1 2.66-1 3.37 3.37 0 0 1 1.66.59 10 10 0 0 1 1.19 1.11c1.24 1.58 2.87 0 3-1.1s.08-2.08.28-2.09" fill="#fcf2fc" transform="translate(0 -.29)"/><path d="m89 316.11c-.08-.1.36-.85 1.66-1.66a3.17 3.17 0 0 1 2.79-.22 2.27 2.27 0 0 1 1.32 1.31 3 3 0 0 1 0 1.85 3.29 3.29 0 0 0 -.23 2.48 2.25 2.25 0 0 0 1.42 1.28c1.17.33 2-.18 2.06 0s-.56 1-2.24.85a3.06 3.06 0 0 1 -2.58-3.33 8.11 8.11 0 0 1 .39-1.58c.78-1.87-1.44-2.39-2.51-1.85s-1.92 1.06-2 .89" fill="#fcf2fc" transform="translate(0 -.29)"/><path d="m89 293.11c-.08-.1.36-.85 1.66-1.66a3.17 3.17 0 0 1 2.79-.22 2.27 2.27 0 0 1 1.32 1.31 3.08 3.08 0 0 1 0 1.86 3.24 3.24 0 0 0 -.23 2.46 2.24 2.24 0 0 0 1.42 1.29c1.17.33 2-.18 2.06 0s-.56 1-2.24.85a3 3 0 0 1 -2.27-1.65 3.13 3.13 0 0 1 -.32-1.68 8.09 8.09 0 0 1 .4-1.58c.78-1.87-1.44-2.39-2.51-1.85s-1.92 1.06-2 .89" fill="#fcf2fc" transform="translate(0 -.29)"/><path d="m110.5 323c-.09.08-.92-.27-1.87-1.44a2.84 2.84 0 0 1 -.49-2.64 2.21 2.21 0 0 1 1.25-1.36 3.32 3.32 0 0 1 1.93-.12 3.67 3.67 0 0 0 2.59 0 2.17 2.17 0 0 0 1.21-1.46c.24-1.15-.36-1.87-.2-2s1.11.45 1.08 2.06a2.87 2.87 0 0 1 -1.51 2.3 3.36 3.36 0 0 1 -1.72.45 9.83 9.83 0 0 1 -1.68-.24c-2-.59-2.35 1.57-1.69 2.54s1.26 1.73 1.1 1.86" fill="#fcf2fc" transform="translate(0 -.29)"/><path d="m126 347c.08.11-.44.9-1.86 1.67a3.23 3.23 0 0 1 -2.94 0 2.48 2.48 0 0 1 -1.27-1.53 3.42 3.42 0 0 1 .2-2c.46-1.16.71-1.88.43-2.67a2.38 2.38 0 0 0 -1.38-1.5c-1.2-.45-2.08 0-2.16-.14s.67-1.06 2.42-.75a3.19 3.19 0 0 1 2.23 2 3.37 3.37 0 0 1 .2 1.85 10.1 10.1 0 0 1 -.53 1.68c-1 2 1.31 2.71 2.47 2.21s2.08-1 2.19-.81" fill="#fcf2fc" transform="translate(0 -.29)"/><path d="m146 309c.08.11-.44.9-1.86 1.67a3.23 3.23 0 0 1 -2.94 0 2.44 2.44 0 0 1 -1.27-1.53 3.42 3.42 0 0 1 .2-2c.46-1.16.71-1.88.43-2.67a2.38 2.38 0 0 0 -1.38-1.5c-1.2-.45-2.08 0-2.16-.14s.68-1.06 2.42-.75a3.19 3.19 0 0 1 2.23 2 3.37 3.37 0 0 1 .2 1.85 10.1 10.1 0 0 1 -.53 1.68c-1 2 1.31 2.71 2.47 2.21s2.08-1 2.19-.81" fill="#fcf2fc" transform="translate(0 -.29)"/><path d="m157.52 303c.09-.1 1.06.11 2.35 1.14a2.92 2.92 0 0 1 1.1 2.61 2.24 2.24 0 0 1 -1.06 1.62 3.9 3.9 0 0 1 -2.08.45 4.25 4.25 0 0 0 -2.82.46 2.16 2.16 0 0 0 -1 1.7c0 1.22.8 1.85.65 2s-1.3-.26-1.63-1.92a2.83 2.83 0 0 1 1.15-2.61 3.74 3.74 0 0 1 1.78-.76 12 12 0 0 1 1.87-.05c2.33.24 2.22-2 1.3-2.9s-1.76-1.55-1.61-1.71" fill="#fcf2fc" transform="translate(0 -.29)"/><path d="m106 367c.08.11-.44.9-1.86 1.67a3.23 3.23 0 0 1 -2.94 0 2.5 2.5 0 0 1 -1.27-1.53 3.34 3.34 0 0 1 .2-2c.46-1.16.71-1.88.43-2.67a2.38 2.38 0 0 0 -1.38-1.5c-1.2-.45-2.08 0-2.16-.14s.67-1.06 2.42-.75a3.19 3.19 0 0 1 2.23 2 3.47 3.47 0 0 1 .2 1.85 10.1 10.1 0 0 1 -.53 1.68c-1 2 1.31 2.71 2.47 2.21s2.08-1 2.19-.81" fill="#fcf2fc" transform="translate(0 -.29)"/><path d="m134 329c-.11.08-.84-.39-1.59-1.74a3.32 3.32 0 0 1 -.14-2.86 2.26 2.26 0 0 1 1.33-1.29 2.82 2.82 0 0 1 1.83.11c1.06.4 1.73.62 2.43.31a2.21 2.21 0 0 0 1.3-1.4c.37-1.19-.11-2 0-2.1s1 .6.77 2.31a3.06 3.06 0 0 1 -1.69 2.25 2.87 2.87 0 0 1 -1.68.27 8.51 8.51 0 0 1 -1.54-.45c-1.82-.86-2.39 1.39-1.89 2.49s1 2 .82 2.1" fill="#fcf2fc" transform="translate(0 -.29)"/><path d="m140 349c-.1.08-.83-.39-1.58-1.74a3.32 3.32 0 0 1 -.14-2.86 2.26 2.26 0 0 1 1.33-1.29 2.82 2.82 0 0 1 1.83.11c1.06.4 1.73.62 2.42.31a2.23 2.23 0 0 0 1.31-1.4c.37-1.19-.11-2 0-2.1s1 .6.77 2.31a3 3 0 0 1 -1.7 2.25 2.83 2.83 0 0 1 -1.67.27 8.51 8.51 0 0 1 -1.54-.45c-1.82-.86-2.39 1.39-1.89 2.49s1 2 .81 2.1" fill="#fcf2fc" transform="translate(0 -.29)"/><path d="m100.21 342c-.12 0-.37-.91-.06-2.5a3.28 3.28 0 0 1 1.73-2.28 2.11 2.11 0 0 1 1.84 0 3.11 3.11 0 0 1 1.29 1.41c.54 1.09.9 1.74 1.62 2a2 2 0 0 0 1.87-.12c1-.64 1.22-1.63 1.4-1.57s.34 1.18-.92 2.33a2.77 2.77 0 0 1 -2.72.48 3 3 0 0 1 -1.42-1 10.63 10.63 0 0 1 -.87-1.47c-.8-2-2.68-.7-3 .52s-.54 2.23-.74 2.2" fill="#fcf2fc" transform="translate(0 -.29)"/><path d="m136.21 366c-.12 0-.37-.91-.06-2.5a3.28 3.28 0 0 1 1.73-2.28 2.11 2.11 0 0 1 1.84 0 3.11 3.11 0 0 1 1.29 1.41c.54 1.09.9 1.74 1.62 2a2 2 0 0 0 1.88-.12c1-.64 1.21-1.63 1.39-1.57s.34 1.18-.92 2.33a2.75 2.75 0 0 1 -2.71.48 3 3 0 0 1 -1.43-1 9.61 9.61 0 0 1 -.86-1.47c-.81-2-2.68-.7-3 .52s-.54 2.23-.74 2.2" fill="#fcf2fc" transform="translate(0 -.29)"/><path d="m134.21 292c-.12 0-.37-.91-.06-2.5a3.28 3.28 0 0 1 1.73-2.28 2.15 2.15 0 0 1 1.84 0 3.15 3.15 0 0 1 1.29 1.43c.54 1.08.9 1.73 1.62 2a2 2 0 0 0 1.88-.12c1-.64 1.21-1.63 1.39-1.58s.34 1.19-.92 2.34a2.75 2.75 0 0 1 -2.71.48 3 3 0 0 1 -1.43-1 9.61 9.61 0 0 1 -.86-1.47c-.81-2-2.68-.7-3 .52s-.54 2.23-.74 2.2" fill="#fcf2fc" transform="translate(0 -.29)"/><path d="m121.76 376c-.07.11-1 0-2.37-.84a3 3 0 0 1 -1.39-2.41 2.13 2.13 0 0 1 .78-1.68 3.65 3.65 0 0 1 1.9-.67 3.83 3.83 0 0 0 2.59-.73 2.07 2.07 0 0 0 .71-1.76c-.15-1.18-1-1.7-.88-1.84s1.27.12 1.8 1.69a2.72 2.72 0 0 1 -.73 2.65 3.56 3.56 0 0 1 -1.57.93 12.39 12.39 0 0 1 -1.76.25c-2.22 0-1.82 2.19-.83 2.94s1.87 1.31 1.75 1.47" fill="#fcf2fc" transform="translate(0 -.29)"/><path d="m79.19 303c.11-.05.86.46 1.53 1.81a2.84 2.84 0 0 1 -.14 2.71 2.38 2.38 0 0 1 -1.56 1.1 3.52 3.52 0 0 1 -2-.28 3.65 3.65 0 0 0 -2.57-.53 2.28 2.28 0 0 0 -1.45 1.19c-.52 1.09-.08 1.92-.26 2s-1-.67-.6-2.27a3 3 0 0 1 2-2 3.48 3.48 0 0 1 1.82-.09 9.11 9.11 0 0 1 1.61.57c1.87 1 2.71-1.07 2.29-2.17s-.86-2-.67-2.07" fill="#fcf2fc" transform="translate(0 -.29)"/><path d="m121.19 296c.12-.06.86.46 1.53 1.81a2.84 2.84 0 0 1 -.14 2.71 2.38 2.38 0 0 1 -1.56 1.1 3.52 3.52 0 0 1 -2-.28 3.64 3.64 0 0 0 -2.57-.53 2.28 2.28 0 0 0 -1.45 1.19c-.51 1.09-.08 1.92-.26 2s-1-.68-.6-2.27a3 3 0 0 1 2-2 3.48 3.48 0 0 1 1.82-.09 10 10 0 0 1 1.61.57c1.87 1 2.71-1.07 2.29-2.17s-.86-2-.67-2.07" fill="#fcf2fc" transform="translate(0 -.29)"/><path d="m96.47 338a8.86 8.86 0 0 1 0-2.49c.1-1.59.3-3.9.57-6.74.54-5.69 1.38-13.55 2.38-22.19a23.78 23.78 0 0 0 0-6.19 10.52 10.52 0 0 0 -2.27-5.13 15.53 15.53 0 0 0 -8.55-5 27.26 27.26 0 0 0 -7-.57 15.14 15.14 0 0 1 -2.63.05 8.4 8.4 0 0 1 2.59-.54 24 24 0 0 1 7.27.19 16.11 16.11 0 0 1 9.32 5.17 11.59 11.59 0 0 1 2.6 5.66 24.31 24.31 0 0 1 0 6.49c-1 8.68-2 16.5-2.77 22.16-.39 2.84-.73 5.12-1 6.7a9.31 9.31 0 0 1 -.55 2.44" fill="#fff" transform="translate(0 -.29)"/><path d="m97 337.1c0 .33-8.22 1.46-18.43 2.51s-18.57 1.63-18.57 1.29 8.22-1.46 18.44-2.51 18.56-1.63 18.56-1.29" fill="#fff" transform="translate(0 -.29)"/><path d="m187.73 351.08c.31-2.19.25-4.28 1.44-6.21 2.37-3.85 5.72-2.88 9-1.19s6.43 2.76 10 1.15c5.62-2.52 8.26-11.29 2.89-15.42-1.73-1.34-3.45.87-3.21 2.56.32 2.36 1.45 5-.5 7-2.61 2.71-5.68.43-8.29-.79a10.5 10.5 0 0 0 -8.72-.38c-5 2.09-8.63 9.11-4.66 13.85a1.21 1.21 0 0 0 2-.56" fill="#7e2e84" transform="translate(0 -.29)"/><path d="m225 270.75c-4.08 3.82-5.63 9.77-1.74 14.35a11.6 11.6 0 0 0 15.31 1.8c11-8.31-.47-23.65-12.37-20.47a1.92 1.92 0 0 0 .52 3.77c3.48.19 7.2.32 10 2.71a6.94 6.94 0 0 1 .61 9.82c-6.49 7.79-17.76-3.68-10.95-10.64a1 1 0 0 0 -1.36-1.34" fill="#ff7081" transform="translate(0 -.29)"/><path d="m62 263.75c-4.08 3.82-5.63 9.77-1.74 14.35a11.6 11.6 0 0 0 15.31 1.8c11-8.31-.47-23.65-12.37-20.47a1.92 1.92 0 0 0 .52 3.77c3.48.19 7.2.32 10 2.71a7 7 0 0 1 .6 9.82c-6.49 7.79-17.76-3.68-11-10.64a1 1 0 0 0 -1.32-1.34" fill="#7cabff" transform="translate(0 -.29)"/><path d="m7.06 357c2.59 9.92 5.44 19.73 8.41 29.55a3 3 0 0 0 4.84 1.72c7.73-5.42 15.46-10.74 22.77-16.74a2.91 2.91 0 0 0 -.29-4.47c-8.57-6.07-20.14-15-31-15.1-2.77 0-4.7 4-1.9 5.67 4.39 2.61 9.65 3.55 14.34 5.56a77.8 77.8 0 0 1 15.55 8.57c.1-1.63.21-3.26.32-4.89-8.18 5.2-15.89 11-23.67 16.84l4.6.95c-3.32-9.7-6.73-19.32-10.41-28.87-.78-2-4.09-.91-3.54 1.21" fill="#ff7081" transform="translate(0 -.29)"/><path d="m237 315.7a136.16 136.16 0 0 0 21.11 1.3c2.57-.08 2.47-3.29 0-3.51a132.63 132.63 0 0 0 -20.81-.06c-1.37.09-1.91 2.12-.35 2.32" fill="#fbc580" transform="translate(0 -.29)"/><path d="m5 315.7a136.16 136.16 0 0 0 21.11 1.3c2.57-.08 2.47-3.29 0-3.51a132.63 132.63 0 0 0 -20.81-.06c-1.37.09-1.91 2.12-.35 2.32" fill="#fbc580" transform="translate(0 -.29)"/><path d="m50.88 304.4-.34-.3a3.85 3.85 0 1 0 -5.45 5.43l.31.35a3.91 3.91 0 0 0 5.48 0c1.35-1.47 1.63-4.05 0-5.48" fill="#241352" transform="translate(0 -.29)"/><path d="m148.48 338c-.26 0-.49-6-1-13.45s-.28-13.57 0-13.55.49 6 1 13.45.28 13.57 0 13.55" fill="#fff" transform="translate(0 -.29)"/><path d="m189 280.82 18.88-5.11 1.12 3.3-19.05 5.7z" fill="#241352"/><path d="m200 280a2 2 0 1 1 -2-2 2 2 0 0 1 2 2" fill="#e6e2eb" transform="translate(0 -.29)"/><path d="m125.81 230c-.24.14-.73-.11-1.2-.62s-.67-1.14-.41-1.3.72.11 1.19.62.67 1.14.42 1.3" fill="#241352" transform="translate(0 -.29)"/><path d="m110.81 232c-.24.14-.73-.11-1.2-.62s-.67-1.14-.41-1.3.72.11 1.19.62.67 1.14.42 1.3" fill="#241352" transform="translate(0 -.29)"/><path d="m94 154.45v37.16h-24.6l-.78 14.1-14.46-14.92h-54.16l4.77-39.08z" fill="#fbc580"/><path d="m83.8 166.83c-23.77-.39-47.69-.53-71.46-.12a.29.29 0 1 0 0 .58c23.77.41 47.69.27 71.46-.12.27 0 .27-.33 0-.34" fill="#e6e2eb" transform="translate(0 -.29)"/><path d="m83.8 173.83c-23.77-.39-47.69-.53-71.46-.12a.29.29 0 1 0 0 .58c23.77.41 47.69.27 71.46-.12.27 0 .27-.33 0-.34" fill="#e6e2eb" transform="translate(0 -.29)"/><path d="m82.8 180.83c-14.41-.37-29-.49-43.46-.12-.45 0-.45.56 0 .58 14.41.37 29.05.25 43.46-.12.27 0 .27-.33 0-.34" fill="#e6e2eb" transform="translate(0 -.29)"/></g></svg>