<svg viewBox="0 0 329.77 302.99" xmlns="http://www.w3.org/2000/svg" xmlns:xlink="http://www.w3.org/1999/xlink"><mask id="a" height="287.92" maskUnits="userSpaceOnUse" width="329.77" x="0" y="0"><path d="m0 .01h329.77v287.92h-329.77z" fill="#fff" fill-rule="evenodd" transform="translate(0 -.01)"/></mask><g mask="url(#a)"><path d="m83.78 282.57c-40.4-13.57-75.44-47.34-82.61-89.26s19.33-89.15 61-98.24c19.7-4.3 41-.46 59.76-7.67 35.48-13.61 47.54-59.65 80.32-78.85 31.58-18.5 74.88-5.16 98.41 22.84s30.34 66.61 28.92 103.13c-2.11 53.63-25 111.47-73.73 134.14-41.1 19.11-128 24.53-172.07 13.91" fill="#fee1e5" fill-rule="evenodd" transform="translate(0 -.01)"/></g><g fill-rule="evenodd"><path d="m35 273.32c8.9 14.74 27.24 20.27 44 19.92s33.05-5.33 49.74-6.34c26.44-1.6 52.36 6.78 78.35 12.09s54.41 7.2 77.6-6.16c5.67-3.26 11.15-7.73 13.45-14s.22-14.71-5.76-17.32a19.33 19.33 0 0 0 -7.41-1.12l-167.08-3.23c-28.35-.55-59.6 0-80.87 19.49" fill="#beadd9" transform="translate(0 -.01)"/><path d="m274.9 107.22c-3.42 3.27-4.73 8.36-1.46 12.29a9.62 9.62 0 0 0 12.87 1.54c9.28-7.12-.39-20.26-10.4-17.54a1.65 1.65 0 0 0 .44 3.23c2.93.17 6.06.28 8.4 2.32a6 6 0 0 1 .51 8.42c-5.46 6.67-14.94-3.16-9.21-9.12a.81.81 0 0 0 -1.15-1.14" fill="#3a3a3a" fill-opacity=".5" transform="translate(0 -.01)"/><path d="m51.67 74.86a11.41 11.41 0 0 0 -10.82.91 11.28 11.28 0 0 0 -4.85 9.63c.12 2.93 1.3 6.28-.58 8.55-1.45 1.75-4 1.91-6.12 2.85a8.53 8.53 0 0 0 -4.13 10.91c1 2.12 2.9 4.08 2.53 6.39a5.17 5.17 0 0 1 -2.75 3.43c-1.32.75-2.79 1.18-4.16 1.84-5 2.42-8 8-7.86 13.57a19 19 0 0 0 7.56 14.13 27.08 27.08 0 0 0 15.5 5.24c5.55.2 11.36-1.09 15.6-4.67 3.18-2.68 5.25-6.44 6.79-10.3a51.31 51.31 0 0 0 3.42-23.19c-.7-8.16-3.35-16.06-3.93-24.22a54.58 54.58 0 0 0 -.77-8.18 10.37 10.37 0 0 0 -4.4-6.75" fill="#3a3a3a" transform="translate(0 -.01)"/><path d="m50.41 75.91a24.46 24.46 0 0 1 16.53-13 18 18 0 0 1 13 1.64c3.84 2.29 6.49 6.75 5.91 11.16-.36 2.72-1.85 5.15-2.79 7.74s-1.26 5.74.5 7.86c1.57 1.91 4.27 2.38 6.42 3.62a9.55 9.55 0 0 1 -.98 17.07 11.77 11.77 0 0 1 8.14 4.82 11.61 11.61 0 0 1 1.8 9.24c-1.06 4.52-4.75 8-8.72 10.41a38.7 38.7 0 0 1 -18.38 5.65c-6.87.31-14.49-1.72-18.23-7.46-2.45-3.77-2.82-8.48-3.1-13-.83-13.53-1.4-27.08-2-40.63a23.25 23.25 0 0 1 .34-6.51" fill="#3a3a3a" transform="translate(0 -.01)"/><path d="m73.53 137.06 61.62 23-5.89-24.75 16-4.05s17.24 48.37 5.27 49.67c-21 2.26-52.67-6-52.67-6z" fill="#3a3a3a" fill-opacity=".5" transform="translate(0 -.01)"/><path d="m68.14 242.63s74.44-80.79 124.7-63.16 71.47 99.93 71.47 99.93l-40-.64s-31.61-62.15-47-59.75-63.07 61.57-63.07 61.57z" fill="#3a3a3a" fill-opacity=".5" transform="translate(0 -.01)"/><path d="m91.69 193.58 3.09 47.42c-16 19.62-71.91-5.74-71.91-5.74l-.65-19.82-1.29-47.21c1.28-18.79 18.84-28 18.84-28 7.26-3.6 18.33-5.64 28.3-5.15 10.42.51 13 5.47 17.28 14.91 3.46 7.64 12.87 20.07 6.34 43.63" fill="#3a3a3a" fill-opacity=".5" transform="translate(0 -.01)"/><path d="m33.32 244.17s-8.55 34.57 17.49 40 121.81-7.3 146.76-5.12 95.88 6.29 95.88 6.29l5.2-41.06s-110.4-5.26-122.88-2.18-142.45 2-142.45 2" fill="#3a3a3a" fill-opacity=".5" transform="translate(0 -.01)"/><path d="m45.8 183.72s-7.8 45.75 3.2 44.62c36.22-3.7 57.79-4.2 57.79-4.2l6 12.39c.14 2.12-68.59 21.68-79.63 15.21-7.8-4.57-20.22-16.87-14.58-53.63l1.33-12.32z" fill="#3a3a3a" transform="translate(0 -.01)"/><path d="m78.48 249.39-.07-3.07 45.46-6.38 12.07-41.96 50.36-1.21-13.59 45.41z" fill="#3a3a3a" fill-opacity=".5"/><path d="m160.2 217.88a3.73 3.73 0 1 1 -3.82-3.62 3.72 3.72 0 0 1 3.82 3.62" fill="#3a3a3a" transform="translate(0 -.01)"/><path d="m161.69 217.84a5.22 5.22 0 1 1 -5.34-5.06 5.21 5.21 0 0 1 5.34 5.06" fill="#3a3a3a" transform="translate(0 -.01)"/><path d="m25.88 153.37s-8.45 8.06-10.34 38.63l32.7-3.6s5.45-52-22.36-35" fill="#3a3a3a" transform="translate(0 -.01)"/><path d="m265.91 61.58s11.59 25.89 14.82 24.53 33.17-19.82 33.17-19.82-12.27-23.18-14.82-24.53-33.17 19.82-33.17 19.82" fill="#3a3a3a" fill-opacity=".5" transform="translate(0 -.01)"/><path d="m299.08 41.76c.14.05-.71 2.71-2.21 7s-3.64 10.08-6.07 16.51c-.06.15-.12.31-.17.46l-.17.43-.46-.07c-6.7-1.09-12.74-2.13-17.09-2.94s-7-1.37-7-1.53 2.74.15 7.12.75 10.45 1.52 17.16 2.6l-.63.36c.06-.14.12-.3.18-.46 2.43-6.42 4.69-12.22 6.38-16.39s2.81-6.73 3-6.68" fill="#3a3a3a" transform="translate(0 -.01)"/><path d="m276.92 83.07c-.3-.07.6-4.32 2-9.49s2.81-9.3 3.11-9.2-.6 4.35-2 9.49-2.8 9.27-3.11 9.2" fill="#3a3a3a" transform="translate(0 -.01)"/><path d="m311.92 61.14c0 .3-4.22-.1-9.33-.9s-9.2-1.71-9.15-2 4.23.09 9.33.89 9.2 1.71 9.15 2" fill="#3a3a3a" transform="translate(0 -.01)"/><path d="m42.25 89.39.75 9.69s-8.28 1.11-5.92 8.63 8 4.22 8 4.22 1.42 19.26 21.26 13.15c15.79-4.86 14.82-25.19 12.82-42.52a11.67 11.67 0 0 0 -13.84-10l-11.91 2.27a13.8 13.8 0 0 0 -11.16 14.56" fill="#3a3a3a" transform="translate(0 -.01)"/><path d="m43 107.12 5.35 28.35a11.43 11.43 0 0 0 22.5-4.09l-2.91-16.24z" fill="#3a3a3a" transform="translate(0 -.01)"/><path d="m64.94 107.44c.07 0 .24.25.6.29s.89-.32 1-1.09a10 10 0 0 0 0-2.93c-.09-1.25-.18-2.49-.28-3.78-.34-5.36-.36-9.73 0-9.75s.85 4.32 1.18 9.68c.07 1.3.13 2.53.2 3.78a8.86 8.86 0 0 1 -.25 3.22c-.26 1-1.28 1.59-1.91 1.3s-.52-.72-.48-.72" fill="#3a3a3a" transform="translate(0 -.01)"/><path d="m71.37 123.11c.09.1-.7 1-2.33 1.9a15.09 15.09 0 0 1 -7 1.9 14.93 14.93 0 0 1 -7.12-1.61c-1.66-.86-2.49-1.69-2.41-1.8.15-.31 4 2.42 9.5 2.28s9.24-3 9.39-2.67" fill="#3a3a3a" transform="translate(0 -.01)"/><path d="m67.5 111.42c.11.08-.15.71-1 1.33a4.75 4.75 0 0 1 -4.05.58 4.66 4.66 0 0 1 -3-2.82c-.35-1-.19-1.67 0-1.67s.31.57.78 1.33a4.87 4.87 0 0 0 2.56 2.09 4.93 4.93 0 0 0 3.32-.21c.82-.34 1.28-.74 1.41-.63" fill="#3a3a3a" transform="translate(0 -.01)"/><path d="m42.37 108.65c0 .13-.48.36-1.35.11a1.94 1.94 0 0 1 -1.19-1.13 1.74 1.74 0 0 1 0-1.09 1.44 1.44 0 0 1 .88-.94 1.4 1.4 0 0 1 1.71.52l-1 .5c-.63-1.58-.94-2.8-.7-2.9s.94.93 1.69 2.46l-1 .5a.38.38 0 0 0 -.38 0c-.21.06-.3.31-.23.64a1.23 1.23 0 0 0 .54.74c.52.34 1 .44 1 .61" fill="#3a3a3a" transform="translate(0 -.01)"/><path d="m72.88 95.05c-.3.07-.71-.57-.9-1.43s-.11-1.6.2-1.67.71.57.9 1.43.11 1.6-.2 1.67" fill="#3a3a3a" transform="translate(0 -.01)"/><path d="m56.09 96.6c-.31.09-.75-.54-1-1.4s-.18-1.62.12-1.7.74.54 1 1.4.19 1.62-.11 1.7" fill="#3a3a3a" transform="translate(0 -.01)"/><path d="m57.65 89.55c-.1.3-1 .29-2 .57s-1.78.69-2 .47.35-1.22 1.73-1.59 2.38.25 2.27.53" fill="#3a3a3a" transform="translate(0 -.01)"/><path d="m74.8 86.84c-.13.3-1.11.15-2.26.27s-2.1.4-2.28.13.74-1.13 2.18-1.24 2.5.59 2.36.86" fill="#3a3a3a" transform="translate(0 -.01)"/><path d="m43 99.08c5.54-5.37 7.17-14.31 8.67-21.86a19.48 19.48 0 0 0 18.1 2.35 29 29 0 0 0 6.44 5.6 3 3 0 0 0 2.28.63c.93-.28 1.34-1.34 1.56-2.28a16.06 16.06 0 0 0 -.32-9.14 11 11 0 0 0 -6.16-6.57c-3.1-1.19-6.58-.67-9.8.15a54.58 54.58 0 0 0 -13.83 5.69c-4.24 2.46-8.31 5.73-10.11 10.27s-1.83 13.38 2.54 15.68" fill="#3a3a3a" transform="translate(0 -.01)"/><path d="m65.6 112.47a2.36 2.36 0 1 1 -4.35-.92c.86-1.31 2-2.08 2.69-2s1.4 1.34 1.66 2.88" fill="#3a3a3a" transform="translate(0 -.01)"/><path d="m58.7 103.47c.27 1.53-1.63 3.15-4.28 3.27s-4.69-1.32-4.55-2.87 2.05-2.66 4.29-2.77 4.26.83 4.54 2.37" fill="#3a3a3a" transform="translate(0 -.01)"/><path d="m79.67 101.77c.31 1.52-1.35 3.14-3.75 3.26s-4.22-1.31-4.07-2.86 1.85-2.67 3.78-2.78 3.73.85 4 2.38" fill="#3a3a3a" transform="translate(0 -.01)"/><path d="m42.77 124.73c-.32 0-.5-3.12-.7-6.93s-.34-6.93 0-7 1 3 1.15 6.91-.13 7-.43 7" fill="#3a3a3a" transform="translate(0 -.01)"/><path d="m75.68 136.85c-5.36-2.12 35.88 13.15 35.88 13.15l-4.18 28-15.69-5.12z" fill="#3a3a3a" fill-opacity=".5" transform="translate(0 -.01)"/><path d="m51.14 73.39a8.44 8.44 0 0 0 1.15-6.7c-.48-1.87-1.89-3.72-3.82-3.82a4.24 4.24 0 0 0 -3 1.22 6.23 6.23 0 0 0 -1.18 7.42 6.31 6.31 0 0 0 7 2.88" fill="#3a3a3a" transform="translate(0 -.01)"/><path d="m297.54 253.05s13.42-19.13 11.78-11.89-15.26 39.42-15.26 39.42z" fill="#3a3a3a" fill-opacity=".5" transform="translate(0 -.01)"/><path d="m103 224.14s17.73-5.53 17.12-3.71-3.63 1.89-6.64 4.82c0 0 19.81.21 18.86 1.84s-13.85 2-13.93 2.3 14.11.63 13.79 2.13-13.5 1.13-13.5 1.13 12.22 1.3 12 2.91-11.52.46-11.52.46 9.43 1.07 9.18 2.53c-.14.9-27.6 1.1-27.66 1.75 0 .35 2.33-16.16 2.33-16.16" fill="#3a3a3a" transform="translate(0 -.01)"/><path d="m130.42 136.85s-10.76-15-8.84-14.95 2.92 2.82 6.64 4.75c0 0-5.94-18.71-4.1-18.32s6.23 12.4 6.52 12.39-3.79-13.47-2.26-13.63 5.27 12.35 5.27 12.35-2.57-11.9-1-12.16 4 10.69 4 10.69-1.91-9.2-.44-9.43c.9-.14 9 22.69 9 22.69-.21 0-14.87 5.62-14.87 5.62" fill="#3a3a3a" fill-opacity=".5" transform="translate(0 -.01)"/><path d="m31.16 178c.12 0 .52.7.54 2.11a2.88 2.88 0 0 1 -1.16 2.3 2.13 2.13 0 0 1 -1.69.39 2.83 2.83 0 0 1 -1.47-.94c-.7-.81-1.16-1.3-1.88-1.38a2.05 2.05 0 0 0 -1.7.48c-.84.76-.82 1.64-1 1.63s-.54-.94.4-2.17a2.79 2.79 0 0 1 2.41-1 2.88 2.88 0 0 1 1.51.57 7.82 7.82 0 0 1 1.08 1.07c1.13 1.53 2.61 0 2.69-1.06s.07-2 .26-2" fill="#3a3a3a" transform="translate(0 -.01)"/><path d="m40.84 169.7c-.07-.1.33-.81 1.53-1.56a2.93 2.93 0 0 1 2.58-.21 2.11 2.11 0 0 1 1.22 1.23 2.77 2.77 0 0 1 -.05 1.74c-.33 1-.51 1.65-.2 2.31a2 2 0 0 0 1.3 1.2c1.09.31 1.83-.17 1.91 0s-.52 1-2.07.8a2.79 2.79 0 0 1 -2.1-1.54 3 3 0 0 1 -.29-1.58 8.92 8.92 0 0 1 .36-1.48c.73-1.75-1.32-2.23-2.31-1.73s-1.77 1-1.88.84" fill="#3a3a3a" transform="translate(0 -.01)"/><path d="m40.19 149c-.07-.1.33-.81 1.53-1.56a2.92 2.92 0 0 1 2.58-.21 2.1 2.1 0 0 1 1.21 1.23 2.85 2.85 0 0 1 0 1.74 3.07 3.07 0 0 0 -.21 2.31 2.08 2.08 0 0 0 1.31 1.2c1.08.31 1.83-.17 1.91 0s-.53.95-2.08.8a2.79 2.79 0 0 1 -2.09-1.55 2.93 2.93 0 0 1 -.3-1.57 8 8 0 0 1 .37-1.48c.72-1.75-1.33-2.23-2.32-1.73s-1.77 1-1.87.84" fill="#3a3a3a" transform="translate(0 -.01)"/><path d="m60.83 176c-.09.08-.83-.26-1.69-1.38a2.91 2.91 0 0 1 -.44-2.62 2.12 2.12 0 0 1 1.13-1.31 2.85 2.85 0 0 1 1.74-.11 3.16 3.16 0 0 0 2.34 0 2.09 2.09 0 0 0 1.09-1.4c.22-1.11-.33-1.8-.19-1.89s1 .43 1 2a2.77 2.77 0 0 1 -1.36 2.21 3 3 0 0 1 -1.56.43 9.06 9.06 0 0 1 -1.51-.23c-1.82-.57-2.12 1.51-1.53 2.44s1.15 1.67 1 1.79" fill="#3a3a3a" transform="translate(0 -.01)"/><path d="m74.91 197.61c.06.1-.39.77-1.64 1.44a2.91 2.91 0 0 1 -2.59 0 2.11 2.11 0 0 1 -1.12-1.32 2.8 2.8 0 0 1 .17-1.72 3.08 3.08 0 0 0 .38-2.3 2.1 2.1 0 0 0 -1.21-1.29c-1.06-.39-1.84 0-1.91-.12s.6-.91 2.13-.64a2.75 2.75 0 0 1 2 1.69 2.92 2.92 0 0 1 .18 1.59 9.15 9.15 0 0 1 -.47 1.45c-.86 1.69 1.15 2.33 2.18 1.89s1.83-.85 1.93-.69" fill="#3a3a3a" transform="translate(0 -.01)"/><path d="m91.48 163.46c.07.1-.38.78-1.64 1.44a2.91 2.91 0 0 1 -2.59 0 2.12 2.12 0 0 1 -1.12-1.31 2.84 2.84 0 0 1 .18-1.73c.4-1 .63-1.61.37-2.29a2 2 0 0 0 -1.21-1.29c-1.06-.4-1.83 0-1.9-.13s.59-.91 2.12-.64a2.79 2.79 0 0 1 2 1.69 2.85 2.85 0 0 1 .18 1.6 7.85 7.85 0 0 1 -.47 1.44c-.86 1.7 1.16 2.33 2.18 1.9s1.84-.86 1.93-.7" fill="#3a3a3a" transform="translate(0 -.01)"/><path d="m102.79 158.27c.07-.1.87.1 1.92 1a2.87 2.87 0 0 1 .9 2.41 2.11 2.11 0 0 1 -.87 1.49 2.88 2.88 0 0 1 -1.7.43c-1.07-.05-1.74-.05-2.29.42a2.05 2.05 0 0 0 -.82 1.57c0 1.13.66 1.71.53 1.82s-1.06-.24-1.33-1.77a2.78 2.78 0 0 1 .94-2.42 3 3 0 0 1 1.45-.7 8.05 8.05 0 0 1 1.53 0c1.89.23 1.81-1.87 1-2.68s-1.43-1.43-1.31-1.57" fill="#3a3a3a" transform="translate(0 -.01)"/><path d="m57.05 215.26c.06.1-.39.78-1.64 1.45a3 3 0 0 1 -2.6 0 2.14 2.14 0 0 1 -1.12-1.32 2.84 2.84 0 0 1 .18-1.73 3.05 3.05 0 0 0 .38-2.29 2.06 2.06 0 0 0 -1.25-1.27c-1.06-.39-1.83 0-1.9-.12s.59-.92 2.13-.65a2.79 2.79 0 0 1 2 1.69 3.06 3.06 0 0 1 .18 1.6 7.83 7.83 0 0 1 -.48 1.44c-.85 1.7 1.16 2.33 2.18 1.9s1.84-.85 1.94-.7" fill="#3a3a3a" transform="translate(0 -.01)"/><path d="m81.58 182.4c-.1.07-.8-.35-1.52-1.57a2.83 2.83 0 0 1 -.13-2.57 2.14 2.14 0 0 1 1.27-1.17 2.93 2.93 0 0 1 1.75.1 3.05 3.05 0 0 0 2.31.28 2 2 0 0 0 1.25-1.26c.35-1.07-.11-1.82 0-1.89s1 .54.74 2.08a2.77 2.77 0 0 1 -1.62 2 2.9 2.9 0 0 1 -1.59.24 8.4 8.4 0 0 1 -1.47-.4c-1.74-.78-2.29 1.24-1.81 2.24s.93 1.79.78 1.89" fill="#3a3a3a" transform="translate(0 -.01)"/><path d="m86 200.06c-.1.07-.8-.35-1.52-1.57a2.9 2.9 0 0 1 -.13-2.57 2.08 2.08 0 0 1 1.28-1.17 2.82 2.82 0 0 1 1.74.1 3.12 3.12 0 0 0 2.32.28 2.05 2.05 0 0 0 1.24-1.26c.35-1.08-.11-1.82 0-1.9s.94.55.73 2.08a2.74 2.74 0 0 1 -1.61 2 3 3 0 0 1 -1.6.25 8.62 8.62 0 0 1 -1.47-.41c-1.74-.78-2.29 1.25-1.81 2.25s.94 1.79.78 1.89" fill="#3a3a3a" transform="translate(0 -.01)"/><path d="m50.48 192.53c-.12 0-.35-.8-.06-2.18a2.85 2.85 0 0 1 1.64-2 2.12 2.12 0 0 1 1.73 0 2.78 2.78 0 0 1 1.21 1.23c.51.95.85 1.52 1.53 1.76a2.1 2.1 0 0 0 1.78-.1c1-.56 1.15-1.42 1.31-1.38s.33 1-.86 2a2.79 2.79 0 0 1 -2.57.42 2.86 2.86 0 0 1 -1.35-.88 9.14 9.14 0 0 1 -.82-1.29c-.76-1.74-2.53-.6-2.85.45s-.52 2-.7 1.93" fill="#3a3a3a" transform="translate(0 -.01)"/><path d="m82.54 214.32c-.12 0-.35-.79-.06-2.17a2.89 2.89 0 0 1 1.64-2 2.12 2.12 0 0 1 1.73 0 2.88 2.88 0 0 1 1.23 1.24c.5.94.84 1.51 1.52 1.76a2.09 2.09 0 0 0 1.78-.11c1-.56 1.15-1.42 1.31-1.37s.33 1-.86 2a2.82 2.82 0 0 1 -2.57.42 2.88 2.88 0 0 1 -1.35-.89 8.15 8.15 0 0 1 -.81-1.2c-.77-1.74-2.54-.61-2.86.45s-.52 1.95-.7 1.92" fill="#3a3a3a" transform="translate(0 -.01)"/><path d="m81.61 148.29c-.12 0-.35-.79-.06-2.17a2.85 2.85 0 0 1 1.64-2 2.08 2.08 0 0 1 1.73 0 2.88 2.88 0 0 1 1.23 1.24c.5 1 .84 1.52 1.52 1.76a2.09 2.09 0 0 0 1.78-.11c1-.55 1.15-1.42 1.31-1.37s.33 1-.86 2a2.82 2.82 0 0 1 -2.57.42 3 3 0 0 1 -1.33-.86 8.15 8.15 0 0 1 -.81-1.28c-.76-1.74-2.54-.61-2.86.45s-.52 1.95-.7 1.92" fill="#3a3a3a" transform="translate(0 -.01)"/><path d="m71.14 223.09c-.07.1-.88 0-2-.81a2.83 2.83 0 0 1 -1.23-2.28 2.07 2.07 0 0 1 .67-1.59 2.85 2.85 0 0 1 1.63-.63c1.07-.09 1.73-.17 2.22-.7a2.06 2.06 0 0 0 .61-1.66c-.13-1.12-.86-1.61-.75-1.75s1.08.11 1.54 1.6a2.75 2.75 0 0 1 -.63 2.51 2.78 2.78 0 0 1 -1.35.88 8.93 8.93 0 0 1 -1.5.24c-1.91 0-1.57 2.08-.71 2.79s1.59 1.24 1.5 1.4" fill="#3a3a3a" transform="translate(0 -.01)"/><path d="m33.11 158.27c.1-.06.76.43 1.35 1.71a2.84 2.84 0 0 1 -.12 2.57 2.09 2.09 0 0 1 -1.38 1 2.88 2.88 0 0 1 -1.73-.27c-1-.46-1.59-.72-2.28-.5a2.07 2.07 0 0 0 -1.36 1.22c-.45 1-.07 1.82-.23 1.89s-.89-.64-.53-2.15a2.79 2.79 0 0 1 1.81-1.87 3 3 0 0 1 1.61-.08 8.73 8.73 0 0 1 1.43.54c1.65.95 2.4-1 2-2.06s-.76-1.87-.59-1.95" fill="#3a3a3a" transform="translate(0 -.01)"/><path d="m69.81 151.73c.11-.06.76.43 1.36 1.71a2.89 2.89 0 0 1 -.12 2.58 2.17 2.17 0 0 1 -1.39 1 2.94 2.94 0 0 1 -1.72-.27 3.13 3.13 0 0 0 -2.28-.51 2.1 2.1 0 0 0 -1.37 1.14c-.45 1-.07 1.82-.23 1.88s-.88-.64-.52-2.15a2.78 2.78 0 0 1 1.8-1.86 3 3 0 0 1 1.66-.05 8.59 8.59 0 0 1 1.42.55c1.66.94 2.4-1 2-2.06s-.75-1.87-.59-2" fill="#3a3a3a" transform="translate(0 -.01)"/><path d="m47.18 190.14a9.12 9.12 0 0 1 0-2.23c.09-1.43.25-3.5.48-6 .46-5.1 1.18-12.14 2-19.89a22.94 22.94 0 0 0 0-5.55 9.74 9.74 0 0 0 -1.92-4.6 13.07 13.07 0 0 0 -7.26-4.49 22.2 22.2 0 0 0 -6-.51 13.22 13.22 0 0 1 -2.24.05 6.34 6.34 0 0 1 2.2-.49 19 19 0 0 1 6.17.17 13.48 13.48 0 0 1 7.91 4.64 10.56 10.56 0 0 1 2.2 5.06 22.75 22.75 0 0 1 0 5.83c-.84 7.78-1.69 14.79-2.35 19.87-.33 2.54-.62 4.59-.84 6a8.45 8.45 0 0 1 -.47 2.19" fill="#3a3a3a" transform="translate(0 -.01)"/><path d="m48.64 188.37c0 .31-7.42 1.35-16.64 2.32s-16.73 1.51-16.77 1.19 7.42-1.34 16.65-2.31 16.73-1.51 16.76-1.2" fill="#3a3a3a" transform="translate(0 -.01)"/><path d="m94.06 184.7c-.38 0 1.43-6.57-.63-14.36s-6.65-12.72-6.34-12.92c.09-.09 1.38 1 3 3.14a28 28 0 0 1 5.1 19.95c-.38 2.67-1 4.23-1.12 4.19" fill="#3a3a3a" fill-opacity=".5" transform="translate(0 -.01)"/><path d="m181.33 185.23c.28-1.86.22-3.63 1.27-5.27 2.08-3.27 5.05-2.46 7.92-1s5.67 2.34 8.84 1c5-2.15 7.21-9.5 2.56-13.06-1.51-1.15-3.06.75-2.84 2.17.32 2 1.3 4.22-.43 5.94-2.31 2.3-5 .37-7.32-.66a9.56 9.56 0 0 0 -7.68-.34c-4.42 1.77-7.62 7.72-4.12 11.74a1.09 1.09 0 0 0 1.8-.47" fill="#3a3a3a" fill-opacity=".5" transform="translate(0 -.01)"/><path d="m193 99.8c.47 3 3.62 9.38 6.93 10.26 1.76.46 3.07-.69 4.44-1.63 2.49-1.7 5-3.45 7.41-5.19a2.13 2.13 0 0 0 .76-2.86l-6.54-10a2.14 2.14 0 0 0 -2.87-.75 87.82 87.82 0 0 0 -8.13 5.9c-1.7 1.52.47 4.1 2.38 3.07a85.32 85.32 0 0 0 7.87-5.37l-2.88-.75 6.54 10 .75-2.86-4.43 3.14c-.74.53-3.76 3.27-4.57 3.09s-2.49-2.94-3.09-3.65a16.61 16.61 0 0 0 -3.38-3.32c-.65-.45-1.28.28-1.19.91" fill="#3a3a3a" fill-opacity=".5" transform="translate(0 -.01)"/><path d="m162.15 130.9c-3.43 3.27-4.73 8.37-1.46 12.3a9.62 9.62 0 0 0 12.87 1.53c9.28-7.12-.39-20.25-10.4-17.53a1.65 1.65 0 0 0 .44 3.23c2.92.17 6.06.28 8.39 2.32a6 6 0 0 1 .51 8.41c-5.46 6.67-14.93-3.15-9.2-9.11a.81.81 0 0 0 -1.15-1.15" fill="#3a3a3a" fill-opacity=".5" transform="translate(0 -.01)"/><path d="m241 161.17c-1.19 6.1-2.19 12.21-3.13 18.35a1.87 1.87 0 0 0 2.27 2.26c5.8-.84 11.59-1.61 17.31-2.87a1.73 1.73 0 0 0 1-2.51c-3.25-5.67-7.38-13.59-13.49-16.68-1.54-.79-3.73.91-2.58 2.56 1.82 2.6 4.51 4.55 6.62 6.93a48 48 0 0 1 6.48 8.92l1.48-2.57c-6 .59-11.9 1.66-17.83 2.68l2.33 1.77c.72-6.17 1.36-12.33 1.82-18.53a1.18 1.18 0 0 0 -2.31-.31" fill="#3a3a3a" fill-opacity=".5" transform="translate(0 -.01)"/><path d="m217 131.31c.08-1.91-3-2.38-3.41-.46a107.31 107.31 0 0 0 -1.59 18.68 1.17 1.17 0 0 0 2.29.31 108.53 108.53 0 0 0 2.71-18.53z" fill="#3a3a3a" fill-opacity=".5" transform="translate(0 -.01)"/><path d="m299.12 150.14a1.72 1.72 0 0 0 0-3.44 108 108 0 0 0 -18.43-.06c-1.22.09-1.7 2.09-.31 2.28a108.89 108.89 0 0 0 18.74 1.22z" fill="#3a3a3a" fill-opacity=".5" transform="translate(0 -.01)"/><path d="m230.53 71.43a104.7 104.7 0 0 0 17.2 7.6c1.84.6 3.1-2.26 1.33-3.15a106.78 106.78 0 0 0 -17.64-6.57 1.16 1.16 0 0 0 -.89 2.12" fill="#3a3a3a" fill-opacity=".5" transform="translate(0 -.01)"/><path d="m247.68 120.76a3.58 3.58 0 0 0 -5 0 3.54 3.54 0 0 0 0 4.92l.28.31a3.52 3.52 0 0 0 5-5z" fill="#3a3a3a" fill-opacity=".5" transform="translate(0 -.01)"/><path d="m271.44 101.93c-3.52 3.15-4.86 8.06-1.5 11.85a10.32 10.32 0 0 0 13.21 1.48c9.53-6.86-.4-19.53-10.68-16.91a1.58 1.58 0 0 0 .45 3.12c3 .16 6.22.27 8.63 2.24a5.57 5.57 0 0 1 .52 8.11c-5.61 6.43-15.34-3-9.45-8.79.74-.73-.41-1.8-1.18-1.1" fill="#7cabff" transform="translate(0 -.01)"/><path d="m47.75 71a11.46 11.46 0 0 0 -10.8.9 11.22 11.22 0 0 0 -4.9 9.59c.12 2.92 1.3 6.24-.58 8.5-1.45 1.74-4 1.9-6.11 2.83a8.47 8.47 0 0 0 -4.12 10.85c1 2.12 2.89 4.07 2.53 6.36a5.14 5.14 0 0 1 -2.77 3.36c-1.32.74-2.8 1.17-4.16 1.83a14.73 14.73 0 0 0 -7.84 13.49 18.91 18.91 0 0 0 7.56 14.06 27.06 27.06 0 0 0 15.44 5.23c5.55.2 11.35-1.08 15.58-4.64 3.18-2.67 5.25-6.41 6.78-10.24a50.82 50.82 0 0 0 3.46-23.12c-.7-8.11-3.35-16-3.93-24.09a52.64 52.64 0 0 0 -.76-8.13 10.36 10.36 0 0 0 -4.34-6.7" fill="#241352" transform="translate(0 -.01)"/><path d="m47.92 70.75a24.28 24.28 0 0 1 16.29-13.23 17.26 17.26 0 0 1 12.79 1.67c3.78 2.32 6.39 6.85 5.81 11.33-.35 2.76-1.82 5.23-2.75 7.86s-1.23 5.83.5 8c1.55 1.93 4.21 2.41 6.32 3.66a9.85 9.85 0 0 1 -1 17.36 11.5 11.5 0 0 1 8 4.89 12.07 12.07 0 0 1 1.78 9.39c-1 4.58-4.68 8.09-8.59 10.57a37.28 37.28 0 0 1 -18.07 5.75c-6.77.31-14.26-1.74-18-7.57-2.41-3.83-2.78-8.61-3.05-13.16-.82-13.75-1.38-27.51-1.94-41.26a24.41 24.41 0 0 1 .33-6.62" fill="#241352" transform="translate(0 -.01)"/><path d="m69 133.7 62.18 22.48-5.93-24.18 16.17-4s17.39 47.35 5.31 48.61c-21.15 2.22-53.15-5.85-53.15-5.85z" fill="#ffafa7" transform="translate(0 -.01)"/><path d="m65 237.91s74-81.08 124-63.38 71 100.29 71 100.29l-39.79-.65s-31.42-62.38-46.76-60-62.69 61.83-62.69 61.83z" fill="#fff" transform="translate(0 -.01)"/><path d="m87.9 189.38 3.1 47.21c-16.08 19.53-72-5.73-72-5.73l-.65-19.73-1.3-47c1.29-18.72 18.88-27.91 18.88-27.91 7.28-3.58 18.37-5.62 28.36-5.13 10.43.51 13 5.45 17.31 14.86 3.47 7.6 12.89 20 6.35 43.45" fill="#fbc580" transform="translate(0 -.01)"/><path d="m30.34 239.11s-8.52 35.83 17.45 41.47 121.5-7.56 146.39-5.3 95.64 6.52 95.64 6.52l5.18-42.54s-110.12-5.45-122.56-2.26-142.1 2.11-142.1 2.11" fill="#fff" transform="translate(0 -.01)"/><path d="m41.75 179s-7.83 46.2 3.25 45.06c36.36-3.74 58-4.24 58-4.24l6 12.51c.14 2.13-68.85 21.88-79.94 15.35-7.82-4.61-20.29-17-14.63-54.15l1.34-12.44z" fill="#ffafa7" transform="translate(0 -.01)"/><path d="m75.08 244.99-.08-3.15 45.51-6.55 12.08-43.05 50.41-1.25-13.6 46.6z" fill="#9c8bbf"/><path d="m157 214.9a4 4 0 1 1 -4.1-3.9 4 4 0 0 1 4.1 3.9" fill="#fff" transform="translate(0 -.01)"/><path d="m158 213.37a5.5 5.5 0 1 1 -5.63-5.37 5.51 5.51 0 0 1 5.63 5.37" fill="#fff" transform="translate(0 -.01)"/><path d="m22.3 148.41s-8.42 8.07-10.3 38.59l32.57-3.6s5.43-52-22.27-35" fill="#fbc580" transform="translate(0 -.01)"/><path d="m262 57.57s11.59 26.78 14.83 25.43 33.17-20.56 33.17-20.56-12.27-24-14.83-25.38-33.17 20.51-33.17 20.51" fill="#e4b1ed" transform="translate(0 -.01)"/><path d="m295 39c.15 0-.7 2.56-2.19 6.57s-3.62 9.52-6 15.58l-.18.44-.16.41-.46-.07c-6.67-1-12.67-2-17-2.77s-7-1.3-7-1.44 2.73.13 7.09.7 10.38 1.44 17.05 2.46l-.61.34c.05-.14.11-.29.17-.44 2.42-6.06 4.67-11.54 6.35-15.48s2.78-6.3 2.94-6.3" fill="#002c68" transform="translate(0 -.01)"/><path d="m273.07 80c-.35-.07.68-4.16 2.3-9.14s3.22-9 3.56-8.86-.68 4.19-2.3 9.14-3.21 8.92-3.56 8.86" fill="#002c68" transform="translate(0 -.01)"/><path d="m308 56.93c-.05.2-4.34-.06-9.59-.57s-9.41-1.1-9.41-1.29 4.34.06 9.59.57 9.46 1.1 9.41 1.29" fill="#002c68" transform="translate(0 -.01)"/><path d="m39.53 85.41.72 9.87s-8.16 1.14-5.83 8.79 7.91 4.31 7.91 4.31 1.4 19.62 21 13.4c15.56-5 14.61-25.67 12.64-43.33a11.56 11.56 0 0 0 -13.69-10.23l-11.76 2.36a14 14 0 0 0 -11 14.83" fill="#ffafa7" transform="translate(0 -.01)"/><path d="m40 102 5.34 29.38a11.45 11.45 0 0 0 13.88 9.3 11.79 11.79 0 0 0 8.6-13.53l-2.9-16.84z" fill="#ffafa7" transform="translate(0 -.01)"/><path d="m62 103.21c.06 0 .18.25.45.29s.66-.32.75-1.09a13 13 0 0 0 0-2.92c-.07-1.25-.13-2.48-.21-3.77-.25-5.35-.26-9.7 0-9.72s.62 4.3.87 9.65c.05 1.29.1 2.53.15 3.77a11.81 11.81 0 0 1 -.19 3.21c-.19 1-.94 1.59-1.41 1.3s-.39-.72-.36-.72" fill="#241352" transform="translate(0 -.01)"/><path d="m68 118c.09.14-.7 1.26-2.34 2.48a12.73 12.73 0 0 1 -7.08 2.52 12.48 12.48 0 0 1 -7.15-2.1c-1.68-1.13-2.51-2.21-2.42-2.35.14-.41 4 3.15 9.54 3s9.29-3.92 9.45-3.55" fill="#241352" transform="translate(0 -.01)"/><path d="m64 107.74c.1.08-.14.76-1 1.41a4.28 4.28 0 0 1 -3.93.62 4.77 4.77 0 0 1 -2.85-3c-.35-1.08-.19-1.78-.05-1.78s.29.61.75 1.41a4.83 4.83 0 0 0 2.49 2.22 4.35 4.35 0 0 0 3.21-.22c.8-.37 1.24-.79 1.37-.67" fill="#241352" transform="translate(0 -.01)"/><path d="m40 104.74c0 .15-.36.42-1 .13a1.91 1.91 0 0 1 -.88-1.31 3 3 0 0 1 0-1.27 1.61 1.61 0 0 1 .65-1.09c.42-.26 1-.11 1.28.61l-.72.58c-.47-1.85-.7-3.26-.52-3.38s.7 1.09 1.26 2.87l-.72.58s-.13-.12-.28 0-.23.36-.17.75a1.54 1.54 0 0 0 .4.85c.39.4.75.51.74.71" fill="#241352" transform="translate(0 -.01)"/><path d="m69.32 90c-.28 0-.65-.37-.83-.92s-.09-1 .19-1.08.65.37.83.92.09 1-.19 1.08" fill="#241352" transform="translate(0 -.01)"/><path d="m51.4 91c-.28 0-.68-.35-.9-.9s-.17-1 .1-1.1.68.35.9.9.18 1-.1 1.1" fill="#241352" transform="translate(0 -.01)"/><path d="m54 86.78c-.09.29-1 .28-2 .53s-1.75.64-2 .43.37-1.12 1.7-1.44 2.36.22 2.24.48" fill="#241352" transform="translate(0 -.01)"/><path d="m70 82.17c-.11.28-1 .14-2 .25s-1.84.37-2 .12.62-1.05 1.9-1.16 2.19.55 2.07.79" fill="#241352" transform="translate(0 -.01)"/><path d="m39.21 95.47c5.42-5.45 7-14.53 8.49-22.2a18.53 18.53 0 0 0 17.73 2.39 28.64 28.64 0 0 0 6.31 5.68 2.73 2.73 0 0 0 2.26.66c.91-.28 1.32-1.36 1.53-2.31a16.91 16.91 0 0 0 -.31-9.28 11 11 0 0 0 -6-6.68c-3-1.21-6.45-.68-9.6.16a52.68 52.68 0 0 0 -13.62 5.75c-4.16 2.51-8.14 5.83-9.9 10.44s-1.75 13.59 2.5 15.92" fill="#241352" transform="translate(0 -.01)"/><path d="m58.6 110.94c-1.5-.42-2-2.44-1.27-3.82s1.67-2.24 2.25-2.12 1.18 1.44 1.39 3.09-.87 3.25-2.37 2.85z" fill="#241352" fill-opacity=".2" transform="translate(0 -.01)"/><path d="m51.12 103c-2.4.13-4.24-1.4-4.11-3s1.85-2.83 3.87-2.94 3.85.89 4.1 2.52-1.47 3.29-3.86 3.42z" fill="#241352" fill-opacity=".12" transform="translate(0 -.01)"/><path d="m72.15 102c-2.44.13-4.3-1.4-4.14-3s1.87-2.83 3.84-2.94 3.8.89 4.11 2.52-1.37 3.28-3.81 3.42z" fill="#241352" fill-opacity=".12" transform="translate(0 -.01)"/><path d="m40.19 120c-.3 0-.46-3.14-.64-7s-.31-7 0-7 .88 3.06 1.06 7-.12 7.05-.4 7" fill="#6042dd" transform="translate(0 -.01)"/><path d="m73.46 132.2c-5.16-2.1 34.54 13 34.54 13l-4 27.8-15.1-5.07z" fill="#fbc580" transform="translate(0 -.01)"/><path d="m47.75 69.67a11.3 11.3 0 0 0 1-7.44c-.42-2.07-1.68-4.12-3.41-4.23a3.41 3.41 0 0 0 -2.65 1.36 8.14 8.14 0 0 0 -1.05 8.22c1.18 2.61 3.9 4 6.23 3.19" fill="#241352" transform="translate(0 -.01)"/><path d="m293.39 248.5s13.07-19.1 11.48-11.87-14.87 39.37-14.87 39.37z" fill="#241352" transform="translate(0 -.01)"/><path d="m99.35 219.23s17.89-5.74 17.28-3.85-3.66 2-6.7 5c0 0 20 .22 19 1.9s-14 2.11-14.06 2.4 14.24.64 13.92 2.2-13.63 1.18-13.63 1.18 12.33 1.34 12.08 3-11.63.47-11.63.47 9.52 1.11 9.27 2.63c-.15.92-27.86 1.13-27.92 1.81 0 .36 2.35-16.76 2.35-16.76" fill="#ffafa7" transform="translate(0 -.01)"/><path d="m126.47 132s-11.23-14.58-9.23-14.57 3.05 2.75 6.94 4.63c0 0-6.21-18.23-4.29-17.85s6.51 12.09 6.81 12.07-4-13.12-2.36-13.28 5.5 12 5.5 12-2.68-11.6-1-11.86 4.16 10.46 4.16 10.46-2-9-.46-9.19c.94-.13 9.42 22.12 9.42 22.12-.22 0-15.53 5.47-15.53 5.47" fill="#ffafa7" transform="translate(0 -.01)"/><path d="m27.52 174c.11 0 .46.72.48 2.18a3.14 3.14 0 0 1 -1 2.37 1.69 1.69 0 0 1 -1.49.41 2.56 2.56 0 0 1 -1.29-1c-.62-.84-1-1.34-1.66-1.43a1.66 1.66 0 0 0 -1.5.5c-.74.79-.72 1.69-.87 1.68s-.48-1 .35-2.24a2.32 2.32 0 0 1 2.13-1 2.41 2.41 0 0 1 1.33.59 9.23 9.23 0 0 1 .95 1.11c1 1.58 2.29 0 2.37-1.1s.06-2.08.22-2.09" fill="#fcf2fc" transform="translate(0 -.01)"/><path d="m36 165.11c-.07-.1.31-.85 1.47-1.66a2.59 2.59 0 0 1 2.49-.23 2.22 2.22 0 0 1 1.17 1.32 3.33 3.33 0 0 1 0 1.86 3.6 3.6 0 0 0 -.2 2.47 2.08 2.08 0 0 0 1.26 1.27c1.05.34 1.76-.17 1.84 0s-.51 1-2 .85a2.71 2.71 0 0 1 -2-1.65 3.43 3.43 0 0 1 -.29-1.68 10.06 10.06 0 0 1 .35-1.58c.7-1.88-1.27-2.39-2.23-1.85s-1.7 1.06-1.8.89" fill="#fcf2fc" transform="translate(0 -.01)"/><path d="m36 144.12c-.07-.11.31-.86 1.47-1.67a2.59 2.59 0 0 1 2.49-.22 2.13 2.13 0 0 1 1.16 1.31 3.24 3.24 0 0 1 0 1.86 3.57 3.57 0 0 0 -.2 2.46 2.07 2.07 0 0 0 1.26 1.28c1.05.34 1.76-.17 1.84 0s-.51 1-2 .85a2.71 2.71 0 0 1 -2-1.65 3.43 3.43 0 0 1 -.29-1.68 10.06 10.06 0 0 1 .35-1.58c.7-1.87-1.27-2.39-2.23-1.85s-1.7 1.06-1.8.9" fill="#fcf2fc" transform="translate(0 -.01)"/><path d="m57.5 172c-.09.07-.92-.24-1.87-1.28a2.31 2.31 0 0 1 -.49-2.35 2.1 2.1 0 0 1 1.25-1.21 3.78 3.78 0 0 1 1.93-.1 4 4 0 0 0 2.59 0 2 2 0 0 0 1.21-1.3c.24-1-.36-1.66-.2-1.74s1.11.4 1.08 1.83a2.55 2.55 0 0 1 -1.51 2 3.67 3.67 0 0 1 -1.72.4 11.15 11.15 0 0 1 -1.68-.21 1.45 1.45 0 0 0 -1.69 2.26c.6 1 1.26 1.54 1.1 1.65" fill="#fcf2fc" transform="translate(0 -.01)"/><path d="m72 193.18c.07.11-.39.81-1.65 1.49a2.89 2.89 0 0 1 -2.61 0 2.17 2.17 0 0 1 -1.13-1.37 2.92 2.92 0 0 1 .17-1.78 3.27 3.27 0 0 0 .39-2.37 2.1 2.1 0 0 0 -1.23-1.33c-1.07-.41-1.85 0-1.92-.13s.6-.94 2.15-.66a2.79 2.79 0 0 1 2 1.74 3 3 0 0 1 .18 1.65 9.85 9.85 0 0 1 -.47 1.5c-.87 1.75 1.16 2.4 2.2 2s1.85-.88 1.94-.72" fill="#fcf2fc" transform="translate(0 -.01)"/><path d="m89 159.18c.07.11-.39.81-1.65 1.49a2.89 2.89 0 0 1 -2.61 0 2.17 2.17 0 0 1 -1.13-1.36 3 3 0 0 1 .17-1.79 3.27 3.27 0 0 0 .39-2.37 2.1 2.1 0 0 0 -1.23-1.33c-1.07-.41-1.85 0-1.92-.13s.6-.94 2.15-.66a2.79 2.79 0 0 1 2 1.74 3 3 0 0 1 .18 1.65 9.85 9.85 0 0 1 -.47 1.5c-.87 1.75 1.16 2.4 2.2 2s1.85-.88 1.94-.72" fill="#fcf2fc" transform="translate(0 -.01)"/><path d="m99 155c.08-.09.93.1 2.06 1a2.67 2.67 0 0 1 1 2.36 2 2 0 0 1 -.94 1.45 3.39 3.39 0 0 1 -1.82.41 3.59 3.59 0 0 0 -2.46.41 1.93 1.93 0 0 0 -.87 1.53c0 1.1.7 1.66.56 1.78s-1.14-.24-1.42-1.73a2.55 2.55 0 0 1 1-2.35 3.28 3.28 0 0 1 1.56-.69 10.32 10.32 0 0 1 1.64-.05c2 .22 1.94-1.82 1.13-2.61s-1.61-1.35-1.44-1.51" fill="#fcf2fc" transform="translate(0 -.01)"/><path d="m53 211.18c.07.11-.39.81-1.65 1.49a2.89 2.89 0 0 1 -2.61 0 2.17 2.17 0 0 1 -1.13-1.37 2.92 2.92 0 0 1 .17-1.78 3.27 3.27 0 0 0 .39-2.37 2.1 2.1 0 0 0 -1.23-1.33c-1.07-.41-1.85 0-1.92-.13s.6-.94 2.15-.66a2.79 2.79 0 0 1 2 1.74 3 3 0 0 1 .18 1.65 9.37 9.37 0 0 1 -.47 1.49c-.87 1.76 1.16 2.41 2.19 2s1.86-.88 2-.72" fill="#fcf2fc" transform="translate(0 -.01)"/><path d="m78 178c-.11.07-.84-.35-1.59-1.55a2.63 2.63 0 0 1 -.14-2.53 2.19 2.19 0 0 1 1.33-1.16 3.28 3.28 0 0 1 1.83.1 3.47 3.47 0 0 0 2.43.28 2.07 2.07 0 0 0 1.3-1.25c.37-1-.11-1.79 0-1.87s1 .54.77 2.06a2.77 2.77 0 0 1 -1.69 2 3.23 3.23 0 0 1 -1.68.24 8.62 8.62 0 0 1 -1.54-.4c-1.82-.77-2.39 1.23-1.89 2.22s1 1.76.82 1.86" fill="#fcf2fc" transform="translate(0 -.01)"/><path d="m83 195c-.1.07-.83-.35-1.58-1.55a2.63 2.63 0 0 1 -.14-2.53 2.15 2.15 0 0 1 1.33-1.15 3.2 3.2 0 0 1 1.83.09 3.44 3.44 0 0 0 2.42.28 2.09 2.09 0 0 0 1.31-1.25c.37-1-.11-1.79 0-1.87s1 .54.77 2.06a2.76 2.76 0 0 1 -1.7 2 3.17 3.17 0 0 1 -1.67.24 8.62 8.62 0 0 1 -1.54-.4c-1.82-.77-2.39 1.23-1.89 2.22s1 1.76.81 1.86" fill="#fcf2fc" transform="translate(0 -.01)"/><path d="m47.19 189c-.11 0-.33-.91-.06-2.5a3.28 3.28 0 0 1 1.56-2.28 1.72 1.72 0 0 1 1.65 0 3 3 0 0 1 1.17 1.41c.48 1.09.8 1.74 1.45 2a1.68 1.68 0 0 0 1.69-.12c.94-.64 1.1-1.63 1.26-1.57s.31 1.19-.83 2.33a2.29 2.29 0 0 1 -2.44.48 2.71 2.71 0 0 1 -1.28-1 9.61 9.61 0 0 1 -.78-1.47c-.73-2-2.42-.7-2.72.52s-.49 2.23-.67 2.2" fill="#fcf2fc" transform="translate(0 -.01)"/><path d="m79.19 211c-.11 0-.33-.91-.06-2.5a3.27 3.27 0 0 1 1.57-2.28 1.72 1.72 0 0 1 1.65 0 3 3 0 0 1 1.16 1.41c.48 1.09.81 1.74 1.46 2a1.68 1.68 0 0 0 1.69-.12c.93-.64 1.09-1.63 1.25-1.57s.31 1.19-.83 2.33a2.29 2.29 0 0 1 -2.44.48 2.71 2.71 0 0 1 -1.28-1 9.61 9.61 0 0 1 -.78-1.47c-.73-2-2.42-.7-2.72.52s-.49 2.23-.67 2.2" fill="#fcf2fc" transform="translate(0 -.01)"/><path d="m79.19 144c-.11 0-.33-.91-.06-2.5a3.27 3.27 0 0 1 1.57-2.28 1.72 1.72 0 0 1 1.65 0 3 3 0 0 1 1.16 1.41c.48 1.09.81 1.74 1.46 2a1.68 1.68 0 0 0 1.69-.12c.93-.64 1.09-1.63 1.25-1.57s.31 1.18-.83 2.33a2.29 2.29 0 0 1 -2.44.48 2.71 2.71 0 0 1 -1.28-1 9.61 9.61 0 0 1 -.78-1.47c-.73-2-2.42-.7-2.72.52s-.49 2.23-.67 2.2" fill="#fcf2fc" transform="translate(0 -.01)"/><path d="m67.76 219c-.07.1-1 0-2.37-.77a2.62 2.62 0 0 1 -1.39-2.23 1.82 1.82 0 0 1 .78-1.51 3.82 3.82 0 0 1 1.9-.6 4.09 4.09 0 0 0 2.59-.67 1.75 1.75 0 0 0 .71-1.57c-.15-1.07-1-1.53-.88-1.66s1.27.1 1.8 1.51a2.29 2.29 0 0 1 -.73 2.39 3.64 3.64 0 0 1 -1.57.84 12.07 12.07 0 0 1 -1.76.22c-2.22 0-1.82 2-.83 2.65s1.86 1.18 1.75 1.33" fill="#fcf2fc" transform="translate(0 -.01)"/><path d="m30.39 153c.1-.06.76.46 1.36 1.81a3.14 3.14 0 0 1 -.12 2.71 2.15 2.15 0 0 1 -1.39 1.1 2.81 2.81 0 0 1 -1.73-.28c-1-.49-1.6-.76-2.29-.53a2.09 2.09 0 0 0 -1.37 1.19c-.45 1.09-.07 1.92-.23 2s-.89-.68-.53-2.27a2.87 2.87 0 0 1 1.82-2 2.73 2.73 0 0 1 1.61-.09 8.35 8.35 0 0 1 1.43.57c1.67 1 2.41-1.07 2-2.17s-.76-2-.59-2.07" fill="#fcf2fc" transform="translate(0 -.01)"/><path d="m66.39 148c.1-.06.76.46 1.36 1.81a3.14 3.14 0 0 1 -.12 2.71 2.15 2.15 0 0 1 -1.39 1.1 2.81 2.81 0 0 1 -1.73-.28c-1-.49-1.6-.76-2.29-.53a2.09 2.09 0 0 0 -1.37 1.19c-.45 1.09-.07 1.92-.23 2s-.89-.67-.53-2.27a2.87 2.87 0 0 1 1.82-2 2.73 2.73 0 0 1 1.61-.09 8.35 8.35 0 0 1 1.43.57c1.67 1 2.41-1.07 2-2.17s-.76-2-.59-2.07" fill="#fcf2fc" transform="translate(0 -.01)"/><path d="m44.09 187a9 9 0 0 1 0-2.34c.09-1.5.26-3.66.5-6.33.46-5.34 1.19-12.71 2-20.83a24.06 24.06 0 0 0 0-5.81 10.38 10.38 0 0 0 -2-4.81 13.12 13.12 0 0 0 -7.39-4.7 21.57 21.57 0 0 0 -6.06-.54 12.4 12.4 0 0 1 -2.28.05 6.46 6.46 0 0 1 2.24-.51 18.92 18.92 0 0 1 6.28.18 13.63 13.63 0 0 1 8 4.85 11.33 11.33 0 0 1 2.24 5.31 24.9 24.9 0 0 1 0 6.1c-.86 8.14-1.72 15.48-2.39 20.8-.34 2.66-.63 4.81-.86 6.29a9.25 9.25 0 0 1 -.47 2.29" fill="#241352" transform="translate(0 -.01)"/><path d="m47 185.05c0 .17-7.55.73-16.94 1.25s-17.06.82-17.06.7 7.55-.73 16.94-1.25 17-.82 17.06-.65" fill="#241352" transform="translate(0 -.01)"/><path d="m89.7 180c-.35 0 1.38-6.5-.6-14.21s-6.39-12.58-6.1-12.79c.09-.09 1.33 1 2.88 3.11a28.09 28.09 0 0 1 4.27 9.4 28.56 28.56 0 0 1 .62 10.33c-.36 2.65-1 4.19-1.08 4.15" fill="#241352" transform="translate(0 -.01)"/><path d="m176.23 180.24c.28-1.81.23-3.53 1.26-5.13 2-3.18 5-2.39 7.79-1s5.57 2.27 8.69.94c4.92-2.09 7.09-9.25 2.52-12.71-1.49-1.13-3 .72-2.79 2.11.31 1.95 1.27 4.1-.42 5.78-2.28 2.24-4.94.36-7.21-.64a9.52 9.52 0 0 0 -7.56-.33c-4.34 1.72-7.49 7.51-4 11.43a1.07 1.07 0 0 0 1.76-.46" fill="#7e2e84" transform="translate(0 -.01)"/><path d="m189 95.56c.45 3 3.46 9.45 6.64 10.33 1.68.47 2.94-.69 4.24-1.63 2.39-1.72 4.74-3.48 7.1-5.24a2.19 2.19 0 0 0 .72-2.88q-3.12-5-6.26-10.08a2 2 0 0 0 -2.75-.75 84.11 84.11 0 0 0 -7.77 6c-1.63 1.53.45 4.13 2.27 3.09a80.9 80.9 0 0 0 7.53-5.41l-2.72-.8q3.14 5 6.26 10.08l.72-2.88-4.24 3.16c-.71.53-3.61 3.3-4.37 3.12-.92-.22-2.39-3-3-3.69a16.51 16.51 0 0 0 -3.23-3.34c-.62-.45-1.23.29-1.14.92" fill="#fbc580" transform="translate(0 -.01)"/><path d="m159.44 126.93c-3.52 3.15-4.86 8.06-1.5 11.85a10.32 10.32 0 0 0 13.21 1.48c9.53-6.86-.4-19.53-10.68-16.91a1.58 1.58 0 0 0 .45 3.12c3 .16 6.22.27 8.63 2.23a5.58 5.58 0 0 1 .52 8.12c-5.61 6.43-15.34-3-9.45-8.79.74-.73-.41-1.8-1.18-1.1" fill="#7cabff" transform="translate(0 -.01)"/><path d="m237 156.7c-1.13 6.29-2.1 12.6-3 18.94a1.87 1.87 0 0 0 2.18 2.33c5.56-.87 11.11-1.66 16.6-3a1.82 1.82 0 0 0 1-2.59c-3.11-5.86-7.07-14-12.93-17.22-1.48-.81-3.58 1-2.47 2.65 1.74 2.68 4.32 4.69 6.35 7.15a50.33 50.33 0 0 1 6.21 9.2l1.42-2.65c-5.75.61-11.41 1.71-17.1 2.77l2.24 1.82c.68-6.37 1.3-12.72 1.74-19.12a1.13 1.13 0 0 0 -2.22-.32" fill="#ff7081" transform="translate(0 -.01)"/><path d="m209.75 145.17a90.2 90.2 0 0 0 3.25-18.48c.1-1.91-3.66-2.39-4.09-.46a90 90 0 0 0 -1.91 18.64c0 1.28 2.4 1.6 2.75.3" fill="#ff957e" transform="translate(0 -.01)"/><path d="m276.79 144.38a76.61 76.61 0 0 0 17.64 1.56c2.13-.1 2.05-4.11 0-4.4a75.13 75.13 0 0 0 -17.35-.07c-1.14.11-1.59 2.66-.29 2.91" fill="#fbc580" transform="translate(0 -.01)"/><path d="m227.54 68a103.25 103.25 0 0 0 16.38 7c1.76.54 3-2.08 1.27-2.88a103.87 103.87 0 0 0 -16.79-6c-1.2-.33-2 1.36-.86 1.94" fill="#ff7081" transform="translate(0 -.01)"/><path d="m244.88 116.4-.34-.3a3.85 3.85 0 0 0 -5.45 5.43l.31.35a3.87 3.87 0 0 0 5.48-5.48" fill="#241352" transform="translate(0 -.01)"/><path d="m109.62 5.59a22.17 22.17 0 0 0 -13.33 13.62 24.5 24.5 0 0 0 1.71 19.51c6.15 11.28 22 14.85 32.08 7.28s12-24.54 3.92-34.37-24.31-10.28-32.85-.91" fill="#fde1e5" transform="translate(0 -.01)"/></g></svg>